<svg width="1473" height="1244" viewBox="0 0 1473 1244" fill="none" xmlns="http://www.w3.org/2000/svg">
<rect width="1473" height="1244" fill="#F5F5F5"/>
<rect width="1473" height="1244" fill="white"/>
<path d="M1132.5 517.5V780.5" stroke="black"/>
<path d="M1254.5 517.5V780.5" stroke="black"/>
<path d="M1254.5 780.5V781" stroke="black"/>
<path d="M1262 780.5V517.5" stroke="black"/>
<path d="M1269.5 517.5V780.5" stroke="black"/>
<path d="M1031.5 773.5V843H1078" stroke="black"/>
<path d="M1101.5 834.5L1062.5 814.5V824.5H1050.5V780.5" stroke="black"/>
<path d="M749.5 868.5V937.5" stroke="black"/>
<path d="M838.5 936.5V868.5" stroke="black"/>
<path d="M838.5 429.5V360.5" stroke="black"/>
<path d="M749.5 360.5V429.5" stroke="black"/>
<path d="M81.5 1224.5V187.5V135.5H1399V1224.5H81.5Z" stroke="black" stroke-width="3"/>
<path d="M1101.5 956.5H1188.5" stroke="black"/>
<path d="M1125.5 780.5V517.5" stroke="black"/>
<path d="M1140.5 780.5V518" stroke="black"/>
<path d="M286.5 517.5V429.5H350V697.5H230.5V600.5M286.5 517.5H258.5V600.5M286.5 517.5H303.5V600.5H258.5M258.5 600.5H230.5M258.5 600.5V780.5H286.5V868.5H1101.5M230.244 600.5H230.5" stroke="black"/>
<path d="M350 697.5V781H398.5V869" stroke="black"/>
<path d="M398.5 781L440.5 795.5V844.5H486.5V868.5" stroke="black"/>
<path d="M350 429.5H1101.5V956.5H925.5V868.5" stroke="black"/>
<path d="M350 517.5H398.5V429.5" stroke="black"/>
<path d="M398.5 517.5L440.5 502.5V454H486.5V429.5" stroke="black"/>
<path d="M286.5 473.5H350" stroke="black"/>
<path d="M925.5 429.5V341.5H1188.5V956.5" stroke="black"/>
<path d="M1013.5 868.5V341.5" stroke="black"/>
<path d="M1101.5 341.5V429.5" stroke="black"/>
<path d="M1101.5 463.5L1062.5 483V473.5H1050.5V517.5" stroke="black"/>
<path d="M1101.5 517.5H1276.5V780.5H1101.5" stroke="black"/>
<path d="M1049.5 511.5V517.5H1013.5V475.5H1049.5V481.5M1049.5 511.5H1013.5V505.654H1049.5V499.5H1013.5V493.5H1049.5M1049.5 511.5V493.5M1049.5 493.5V487.5M1049.5 487.5H1013.5V481.5H1049.5M1049.5 487.5V481.5" stroke="black"/>
<path d="M1050 817V823H1014V781H1050V787M1050 817H1014V811.154H1050V805H1014V799H1050M1050 817V799M1050 799V793M1050 793H1014V787H1050M1050 793V787" stroke="black"/>
<path d="M838 923V929H750V887H838V893M838 923H750V917.154H838V911H750V905H838M838 923V905M838 905V899M838 899H750V893H838M838 899V893" stroke="black"/>
<path d="M838 400V406H750V364H838V370M838 400H750V394.154H838V388H750V382H838M838 400V382M838 382V376M838 376H750V370H838M838 376V370" stroke="black"/>
<path d="M1031.5 524.5V467" stroke="black"/>
<path d="M224 625H230V673H188V625H194M224 625V673H218.154V625H212V673H206V625M224 625H206M206 625H200M200 625V673H194V625M200 625H194" stroke="black"/>
<path d="M185.5 649H229.5" stroke="black"/>
<path d="M652.32 613.84H673.92V616.12H652.32V613.84ZM651.24 623.56H674.48V625.96H651.24V623.56ZM651.2 638.4H674.56V640.88H651.2V638.4ZM655 633.48H671.2V635.52H655V633.48ZM653.12 618.6H673.12V620.88H653.12V618.6ZM657.08 610.4H659.8V624.64H657.08V610.4ZM666.2 610.4H668.96V624.64H666.2V610.4ZM661.52 624.68H664.08V639.84H661.52V624.68ZM669.56 628.24H672.32V644.16C672.32 644.907 672.227 645.467 672.04 645.84C671.853 646.24 671.493 646.56 670.96 646.8C670.427 646.987 669.707 647.093 668.8 647.12C667.893 647.173 666.76 647.2 665.4 647.2C665.347 646.827 665.24 646.413 665.08 645.96C664.947 645.507 664.787 645.107 664.6 644.76C665.587 644.787 666.48 644.8 667.28 644.8C668.08 644.827 668.613 644.827 668.88 644.8C669.147 644.773 669.32 644.707 669.4 644.6C669.507 644.52 669.56 644.36 669.56 644.12V628.24ZM653.64 628.24H670.6V630.48H656.24V647.2H653.64V628.24ZM639.28 622.72H649.92V625.12H639.28V622.72ZM639.48 611.8H649.76V614.2H639.48V611.8ZM639.28 628.2H649.92V630.56H639.28V628.2ZM637.52 617.16H650.96V619.64H637.52V617.16ZM640.68 633.68H650.08V645.32H640.68V642.88H647.48V636.16H640.68V633.68ZM639.2 633.68H641.76V647.16H639.2V633.68ZM678.64 643.44H713.48V646.08H678.64V643.44ZM682.08 635.96H710.48V638.6H682.08V635.96ZM694.44 631.44H697.44V644.92H694.44V631.44ZM694.44 610.36H697.44V617.88H694.44V610.36ZM678.88 616.84H713.24V625.56H710.32V619.48H681.68V625.56H678.88V616.84ZM687.8 625.12V629.56H704.24V625.12H687.8ZM685 622.68H707.2V631.96H685V622.68ZM682.6 611.92L685.24 610.84C685.96 611.667 686.667 612.573 687.36 613.56C688.053 614.547 688.573 615.413 688.92 616.16L686.08 617.4C685.787 616.653 685.307 615.76 684.64 614.72C683.973 613.68 683.293 612.747 682.6 611.92ZM706.72 610.68L709.8 611.76C709.133 612.72 708.413 613.68 707.64 614.64C706.867 615.6 706.16 616.413 705.52 617.08L703.04 616.16C703.467 615.653 703.907 615.08 704.36 614.44C704.813 613.773 705.253 613.12 705.68 612.48C706.107 611.84 706.453 611.24 706.72 610.68Z" fill="black"/>
<path d="M1038.61 395L1032.64 373.182H1035.32L1039.88 390.952H1040.1L1044.74 373.182H1047.72L1052.37 390.952H1052.58L1057.14 373.182H1059.83L1053.86 395H1051.13L1046.32 377.614H1046.15L1041.33 395H1038.61ZM1079.65 380H1077.01C1076.85 379.24 1076.58 378.572 1076.19 377.997C1075.8 377.422 1075.34 376.939 1074.78 376.548C1074.23 376.151 1073.63 375.852 1072.96 375.653C1072.29 375.455 1071.6 375.355 1070.87 375.355C1069.55 375.355 1068.35 375.689 1067.28 376.357C1066.22 377.024 1065.37 378.008 1064.74 379.308C1064.11 380.607 1063.8 382.202 1063.8 384.091C1063.8 385.98 1064.11 387.575 1064.74 388.874C1065.37 390.174 1066.22 391.158 1067.28 391.825C1068.35 392.493 1069.55 392.827 1070.87 392.827C1071.6 392.827 1072.29 392.727 1072.96 392.528C1073.63 392.33 1074.23 392.035 1074.78 391.644C1075.34 391.246 1075.8 390.76 1076.19 390.185C1076.58 389.602 1076.85 388.935 1077.01 388.182H1079.65C1079.45 389.297 1079.09 390.295 1078.56 391.175C1078.04 392.056 1077.38 392.805 1076.6 393.423C1075.82 394.034 1074.94 394.499 1073.97 394.819C1073.01 395.138 1071.97 395.298 1070.87 395.298C1069.01 395.298 1067.36 394.844 1065.91 393.935C1064.46 393.026 1063.32 391.733 1062.49 390.057C1061.66 388.381 1061.24 386.392 1061.24 384.091C1061.24 381.79 1061.66 379.801 1062.49 378.125C1063.32 376.449 1064.46 375.156 1065.91 374.247C1067.36 373.338 1069.01 372.884 1070.87 372.884C1071.97 372.884 1073.01 373.043 1073.97 373.363C1074.94 373.683 1075.82 374.151 1076.6 374.769C1077.38 375.38 1078.04 376.126 1078.56 377.006C1079.09 377.88 1079.45 378.878 1079.65 380Z" fill="black"/>
<path d="M1122.61 436L1116.64 414.182H1119.32L1123.88 431.952H1124.1L1128.74 414.182H1131.72L1136.37 431.952H1136.58L1141.14 414.182H1143.83L1137.86 436H1135.13L1130.32 418.614H1130.15L1125.33 436H1122.61ZM1163.65 421H1161.01C1160.85 420.24 1160.58 419.572 1160.19 418.997C1159.8 418.422 1159.34 417.939 1158.78 417.548C1158.23 417.151 1157.63 416.852 1156.96 416.653C1156.29 416.455 1155.6 416.355 1154.87 416.355C1153.55 416.355 1152.35 416.689 1151.28 417.357C1150.22 418.024 1149.37 419.008 1148.74 420.308C1148.11 421.607 1147.8 423.202 1147.8 425.091C1147.8 426.98 1148.11 428.575 1148.74 429.874C1149.37 431.174 1150.22 432.158 1151.28 432.825C1152.35 433.493 1153.55 433.827 1154.87 433.827C1155.6 433.827 1156.29 433.727 1156.96 433.528C1157.63 433.33 1158.23 433.035 1158.78 432.644C1159.34 432.246 1159.8 431.76 1160.19 431.185C1160.58 430.602 1160.85 429.935 1161.01 429.182H1163.65C1163.45 430.297 1163.09 431.295 1162.56 432.175C1162.04 433.056 1161.38 433.805 1160.6 434.423C1159.82 435.034 1158.94 435.499 1157.97 435.819C1157.01 436.138 1155.97 436.298 1154.87 436.298C1153.01 436.298 1151.36 435.844 1149.91 434.935C1148.46 434.026 1147.32 432.733 1146.49 431.057C1145.66 429.381 1145.24 427.392 1145.24 425.091C1145.24 422.79 1145.66 420.801 1146.49 419.125C1147.32 417.449 1148.46 416.156 1149.91 415.247C1151.36 414.338 1153.01 413.884 1154.87 413.884C1155.97 413.884 1157.01 414.043 1157.97 414.363C1158.94 414.683 1159.82 415.151 1160.6 415.769C1161.38 416.38 1162.04 417.126 1162.56 418.006C1163.09 418.88 1163.45 419.878 1163.65 421Z" fill="black"/>
<path d="M1036.05 612.4C1036.03 612.517 1036.01 612.683 1035.98 612.9C1035.96 613.1 1035.94 613.317 1035.93 613.55C1035.91 613.783 1035.9 613.992 1035.9 614.175C1035.9 614.608 1035.9 615.117 1035.9 615.7C1035.9 616.267 1035.9 616.825 1035.9 617.375C1035.9 617.925 1035.9 618.408 1035.9 618.825C1035.9 619.158 1035.9 619.642 1035.9 620.275C1035.9 620.908 1035.9 621.625 1035.9 622.425C1035.9 623.208 1035.9 624.025 1035.9 624.875C1035.9 625.725 1035.9 626.542 1035.9 627.325C1035.9 628.092 1035.9 628.783 1035.9 629.4C1035.9 630 1035.9 630.45 1035.9 630.75C1035.9 631.4 1035.73 631.892 1035.4 632.225C1035.07 632.558 1034.52 632.725 1033.75 632.725C1033.4 632.725 1033.01 632.717 1032.58 632.7C1032.16 632.683 1031.74 632.658 1031.33 632.625C1030.91 632.608 1030.53 632.583 1030.2 632.55L1030.03 630.575C1030.58 630.675 1031.11 630.75 1031.63 630.8C1032.16 630.833 1032.58 630.85 1032.9 630.85C1033.25 630.85 1033.5 630.775 1033.65 630.625C1033.8 630.475 1033.88 630.233 1033.88 629.9C1033.88 629.667 1033.88 629.267 1033.88 628.7C1033.88 628.133 1033.88 627.467 1033.88 626.7C1033.88 625.933 1033.88 625.133 1033.88 624.3C1033.88 623.467 1033.88 622.675 1033.88 621.925C1033.88 621.158 1033.88 620.5 1033.88 619.95C1033.88 619.4 1033.88 619.025 1033.88 618.825C1033.88 618.525 1033.88 618.092 1033.88 617.525C1033.88 616.958 1033.88 616.367 1033.88 615.75C1033.88 615.133 1033.88 614.608 1033.88 614.175C1033.88 613.908 1033.86 613.592 1033.83 613.225C1033.79 612.858 1033.75 612.583 1033.7 612.4H1036.05ZM1024.8 616.6C1025.17 616.65 1025.51 616.692 1025.83 616.725C1026.16 616.742 1026.53 616.75 1026.93 616.75C1027.13 616.75 1027.53 616.75 1028.15 616.75C1028.77 616.75 1029.51 616.75 1030.38 616.75C1031.26 616.75 1032.2 616.75 1033.2 616.75C1034.2 616.75 1035.2 616.75 1036.2 616.75C1037.22 616.75 1038.16 616.75 1039.03 616.75C1039.91 616.75 1040.65 616.75 1041.25 616.75C1041.87 616.75 1042.28 616.75 1042.5 616.75C1042.8 616.75 1043.13 616.742 1043.5 616.725C1043.88 616.692 1044.23 616.658 1044.55 616.625V618.7C1044.22 618.667 1043.88 618.65 1043.53 618.65C1043.18 618.633 1042.84 618.625 1042.53 618.625C1042.31 618.625 1041.89 618.625 1041.28 618.625C1040.68 618.625 1039.93 618.625 1039.05 618.625C1038.18 618.625 1037.25 618.625 1036.25 618.625C1035.25 618.625 1034.25 618.625 1033.25 618.625C1032.25 618.625 1031.31 618.625 1030.43 618.625C1029.56 618.625 1028.82 618.625 1028.2 618.625C1027.58 618.625 1027.17 618.625 1026.95 618.625C1026.57 618.625 1026.2 618.633 1025.85 618.65C1025.5 618.667 1025.15 618.692 1024.8 618.725V616.6ZM1030.55 622.5C1030.28 623.033 1029.95 623.617 1029.55 624.25C1029.17 624.883 1028.74 625.517 1028.28 626.15C1027.83 626.783 1027.38 627.383 1026.93 627.95C1026.49 628.5 1026.1 628.967 1025.75 629.35L1024.03 628.175C1024.44 627.792 1024.88 627.333 1025.33 626.8C1025.79 626.267 1026.24 625.7 1026.68 625.1C1027.11 624.5 1027.51 623.9 1027.88 623.3C1028.24 622.7 1028.55 622.15 1028.8 621.65L1030.55 622.5ZM1041 621.65C1041.33 622.05 1041.69 622.533 1042.08 623.1C1042.48 623.65 1042.88 624.233 1043.28 624.85C1043.69 625.467 1044.08 626.067 1044.43 626.65C1044.78 627.233 1045.08 627.75 1045.33 628.2L1043.48 629.225C1043.24 628.725 1042.95 628.175 1042.6 627.575C1042.27 626.975 1041.91 626.367 1041.53 625.75C1041.14 625.133 1040.75 624.55 1040.35 624C1039.97 623.45 1039.62 622.975 1039.3 622.575L1041 621.65ZM1049.55 621.175C1049.8 621.192 1050.11 621.217 1050.48 621.25C1050.84 621.267 1051.24 621.283 1051.68 621.3C1052.13 621.3 1052.58 621.3 1053.03 621.3C1053.29 621.3 1053.7 621.3 1054.25 621.3C1054.82 621.3 1055.48 621.3 1056.23 621.3C1056.98 621.3 1057.77 621.3 1058.6 621.3C1059.45 621.3 1060.29 621.3 1061.12 621.3C1061.98 621.3 1062.78 621.3 1063.53 621.3C1064.29 621.3 1064.95 621.3 1065.5 621.3C1066.05 621.3 1066.46 621.3 1066.73 621.3C1067.36 621.3 1067.9 621.283 1068.35 621.25C1068.8 621.217 1069.16 621.192 1069.43 621.175V623.625C1069.18 623.608 1068.8 623.583 1068.3 623.55C1067.82 623.517 1067.3 623.5 1066.75 623.5C1066.48 623.5 1066.07 623.5 1065.5 623.5C1064.93 623.5 1064.28 623.5 1063.53 623.5C1062.79 623.5 1062 623.5 1061.15 623.5C1060.3 623.5 1059.45 623.5 1058.6 623.5C1057.77 623.5 1056.98 623.5 1056.23 623.5C1055.49 623.5 1054.84 623.5 1054.28 623.5C1053.71 623.5 1053.29 623.5 1053.03 623.5C1052.34 623.5 1051.69 623.517 1051.08 623.55C1050.46 623.567 1049.95 623.592 1049.55 623.625V621.175ZM1085.1 631.475C1085.15 631.275 1085.18 631.058 1085.2 630.825C1085.23 630.575 1085.25 630.325 1085.25 630.075C1085.25 629.908 1085.25 629.542 1085.25 628.975C1085.25 628.408 1085.25 627.717 1085.25 626.9C1085.25 626.067 1085.25 625.167 1085.25 624.2C1085.25 623.233 1085.25 622.267 1085.25 621.3C1085.25 620.317 1085.25 619.4 1085.25 618.55C1085.25 617.7 1085.25 616.967 1085.25 616.35C1085.25 615.733 1085.25 615.317 1085.25 615.1C1085.25 614.617 1085.23 614.217 1085.2 613.9C1085.17 613.567 1085.14 613.35 1085.13 613.25H1087.43C1087.43 613.35 1087.41 613.567 1087.38 613.9C1087.34 614.233 1087.33 614.633 1087.33 615.1C1087.33 615.333 1087.33 615.75 1087.33 616.35C1087.33 616.933 1087.33 617.65 1087.33 618.5C1087.33 619.333 1087.33 620.233 1087.33 621.2C1087.33 622.15 1087.33 623.092 1087.33 624.025C1087.33 624.958 1087.33 625.825 1087.33 626.625C1087.33 627.408 1087.33 628.058 1087.33 628.575C1087.33 629.092 1087.33 629.408 1087.33 629.525C1088.11 629.158 1088.94 628.675 1089.83 628.075C1090.71 627.475 1091.57 626.775 1092.4 625.975C1093.25 625.175 1093.99 624.308 1094.63 623.375L1095.8 625.075C1095.08 626.042 1094.24 626.967 1093.28 627.85C1092.33 628.733 1091.33 629.525 1090.3 630.225C1089.27 630.925 1088.26 631.517 1087.28 632C1087.08 632.117 1086.9 632.225 1086.75 632.325C1086.62 632.425 1086.51 632.508 1086.43 632.575L1085.1 631.475ZM1073.65 631.35C1074.7 630.6 1075.59 629.692 1076.33 628.625C1077.06 627.558 1077.62 626.417 1078 625.2C1078.18 624.633 1078.33 623.925 1078.42 623.075C1078.53 622.225 1078.6 621.325 1078.65 620.375C1078.7 619.408 1078.73 618.475 1078.73 617.575C1078.74 616.658 1078.75 615.85 1078.75 615.15C1078.75 614.783 1078.73 614.458 1078.7 614.175C1078.67 613.875 1078.63 613.592 1078.58 613.325H1080.88C1080.86 613.425 1080.84 613.575 1080.83 613.775C1080.81 613.958 1080.79 614.167 1080.78 614.4C1080.76 614.633 1080.75 614.875 1080.75 615.125C1080.75 615.825 1080.74 616.65 1080.73 617.6C1080.71 618.533 1080.67 619.517 1080.6 620.55C1080.55 621.567 1080.48 622.533 1080.38 623.45C1080.29 624.367 1080.16 625.133 1079.98 625.75C1079.61 627.083 1079.03 628.342 1078.25 629.525C1077.48 630.708 1076.58 631.742 1075.53 632.625L1073.65 631.35Z" fill="black"/>
<path d="M137.48 217.76H169.88V221.18H137.48V217.76ZM135.86 232.34H170.72V235.94H135.86V232.34ZM135.8 254.6H170.84V258.32H135.8V254.6ZM141.5 247.22H165.8V250.28H141.5V247.22ZM138.68 224.9H168.68V228.32H138.68V224.9ZM144.62 212.6H148.7V233.96H144.62V212.6ZM158.3 212.6H162.44V233.96H158.3V212.6ZM151.28 234.02H155.12V256.76H151.28V234.02ZM163.34 239.36H167.48V263.24C167.48 264.36 167.34 265.2 167.06 265.76C166.78 266.36 166.24 266.84 165.44 267.2C164.64 267.48 163.56 267.64 162.2 267.68C160.84 267.76 159.14 267.8 157.1 267.8C157.02 267.24 156.86 266.62 156.62 265.94C156.42 265.26 156.18 264.66 155.9 264.14C157.38 264.18 158.72 264.2 159.92 264.2C161.12 264.24 161.92 264.24 162.32 264.2C162.72 264.16 162.98 264.06 163.1 263.9C163.26 263.78 163.34 263.54 163.34 263.18V239.36ZM139.46 239.36H164.9V242.72H143.36V267.8H139.46V239.36ZM117.92 231.08H133.88V234.68H117.92V231.08ZM118.22 214.7H133.64V218.3H118.22V214.7ZM117.92 239.3H133.88V242.84H117.92V239.3ZM115.28 222.74H135.44V226.46H115.28V222.74ZM120.02 247.52H134.12V264.98H120.02V261.32H130.22V251.24H120.02V247.52ZM117.8 247.52H121.64V267.74H117.8V247.52ZM176.96 262.16H229.22V266.12H176.96V262.16ZM182.12 250.94H224.72V254.9H182.12V250.94ZM200.66 244.16H205.16V264.38H200.66V244.16ZM200.66 212.54H205.16V223.82H200.66V212.54ZM177.32 222.26H228.86V235.34H224.48V226.22H181.52V235.34H177.32V222.26ZM190.7 234.68V241.34H215.36V234.68H190.7ZM186.5 231.02H219.8V244.94H186.5V231.02ZM182.9 214.88L186.86 213.26C187.94 214.5 189 215.86 190.04 217.34C191.08 218.82 191.86 220.12 192.38 221.24L188.12 223.1C187.68 221.98 186.96 220.64 185.96 219.08C184.96 217.52 183.94 216.12 182.9 214.88ZM219.08 213.02L223.7 214.64C222.7 216.08 221.62 217.52 220.46 218.96C219.3 220.4 218.24 221.62 217.28 222.62L213.56 221.24C214.2 220.48 214.86 219.62 215.54 218.66C216.22 217.66 216.88 216.68 217.52 215.72C218.16 214.76 218.68 213.86 219.08 213.02ZM239.392 241.182C239.392 235.812 240.088 230.876 241.48 226.374C242.886 221.857 244.889 217.702 247.489 213.909H251.92C250.898 215.315 249.939 217.048 249.044 219.108C248.163 221.153 247.389 223.405 246.722 225.862C246.054 228.305 245.528 230.834 245.145 233.447C244.776 236.061 244.591 238.639 244.591 241.182C244.591 244.562 244.918 247.993 245.571 251.473C246.224 254.953 247.105 258.185 248.213 261.168C249.321 264.151 250.557 266.58 251.92 268.455H247.489C244.889 264.662 242.886 260.514 241.48 256.011C240.088 251.494 239.392 246.551 239.392 241.182ZM273.147 218.767C274.937 218.781 276.727 219.122 278.517 219.79C280.306 220.457 281.94 221.565 283.417 223.114C284.895 224.648 286.081 226.743 286.975 229.399C287.87 232.055 288.318 235.386 288.318 239.392C288.318 243.27 287.949 246.714 287.21 249.726C286.485 252.723 285.434 255.251 284.056 257.311C282.693 259.371 281.031 260.933 279.071 261.999C277.125 263.064 274.923 263.597 272.466 263.597C270.022 263.597 267.842 263.114 265.924 262.148C264.021 261.168 262.458 259.811 261.237 258.078C260.029 256.331 259.255 254.307 258.914 252.006H264.113C264.582 254.009 265.512 255.663 266.904 256.97C268.311 258.263 270.164 258.909 272.466 258.909C275.832 258.909 278.488 257.439 280.434 254.499C282.395 251.558 283.375 247.403 283.375 242.034H283.034C282.238 243.227 281.294 244.257 280.2 245.124C279.106 245.99 277.892 246.658 276.556 247.126C275.221 247.595 273.801 247.83 272.295 247.83C269.795 247.83 267.501 247.212 265.413 245.976C263.339 244.726 261.677 243.014 260.427 240.841C259.191 238.653 258.574 236.153 258.574 233.341C258.574 230.67 259.17 228.227 260.363 226.011C261.571 223.781 263.261 222.006 265.434 220.685C267.622 219.364 270.193 218.724 273.147 218.767ZM273.147 223.455C271.358 223.455 269.745 223.902 268.311 224.797C266.89 225.678 265.761 226.871 264.923 228.376C264.099 229.868 263.687 231.523 263.687 233.341C263.687 235.159 264.085 236.814 264.88 238.305C265.69 239.783 266.791 240.962 268.183 241.842C269.589 242.709 271.187 243.142 272.977 243.142C274.326 243.142 275.583 242.879 276.748 242.354C277.913 241.814 278.929 241.082 279.795 240.159C280.676 239.222 281.365 238.163 281.862 236.984C282.359 235.791 282.608 234.548 282.608 233.256C282.608 231.551 282.196 229.953 281.372 228.462C280.562 226.97 279.44 225.763 278.005 224.839C276.585 223.916 274.966 223.455 273.147 223.455ZM310.93 263.597C307.719 263.597 304.985 262.723 302.727 260.976C300.468 259.214 298.742 256.665 297.549 253.327C296.356 249.974 295.759 245.926 295.759 241.182C295.759 236.466 296.356 232.439 297.549 229.101C298.756 225.749 300.489 223.192 302.748 221.43C305.021 219.655 307.748 218.767 310.93 218.767C314.112 218.767 316.832 219.655 319.09 221.43C321.363 223.192 323.096 225.749 324.289 229.101C325.496 232.439 326.1 236.466 326.1 241.182C326.1 245.926 325.504 249.974 324.31 253.327C323.117 256.665 321.391 259.214 319.133 260.976C316.874 262.723 314.14 263.597 310.93 263.597ZM310.93 258.909C314.112 258.909 316.583 257.375 318.344 254.307C320.106 251.239 320.987 246.864 320.987 241.182C320.987 237.403 320.582 234.186 319.772 231.53C318.977 228.874 317.826 226.849 316.32 225.457C314.829 224.065 313.032 223.369 310.93 223.369C307.776 223.369 305.312 224.925 303.536 228.036C301.761 231.132 300.873 235.514 300.873 241.182C300.873 244.96 301.271 248.17 302.066 250.812C302.862 253.455 304.005 255.464 305.496 256.842C307.002 258.22 308.813 258.909 310.93 258.909ZM348.43 263.597C345.219 263.597 342.485 262.723 340.227 260.976C337.968 259.214 336.242 256.665 335.049 253.327C333.856 249.974 333.259 245.926 333.259 241.182C333.259 236.466 333.856 232.439 335.049 229.101C336.256 225.749 337.989 223.192 340.248 221.43C342.521 219.655 345.248 218.767 348.43 218.767C351.612 218.767 354.332 219.655 356.59 221.43C358.863 223.192 360.596 225.749 361.789 229.101C362.996 232.439 363.6 236.466 363.6 241.182C363.6 245.926 363.004 249.974 361.81 253.327C360.617 256.665 358.891 259.214 356.633 260.976C354.374 262.723 351.64 263.597 348.43 263.597ZM348.43 258.909C351.612 258.909 354.083 257.375 355.844 254.307C357.606 251.239 358.487 246.864 358.487 241.182C358.487 237.403 358.082 234.186 357.272 231.53C356.477 228.874 355.326 226.849 353.82 225.457C352.329 224.065 350.532 223.369 348.43 223.369C345.276 223.369 342.812 224.925 341.036 228.036C339.261 231.132 338.373 235.514 338.373 241.182C338.373 244.96 338.771 248.17 339.566 250.812C340.362 253.455 341.505 255.464 342.996 256.842C344.502 258.22 346.313 258.909 348.43 258.909ZM370.84 229.34H423.64V233.18H370.84V229.34ZM394.78 217.82H399.22V243.56H394.78V217.82ZM415.18 213.32L418.18 216.68C415.42 217.24 412.3 217.76 408.82 218.24C405.38 218.72 401.76 219.14 397.96 219.5C394.16 219.82 390.32 220.1 386.44 220.34C382.56 220.54 378.8 220.7 375.16 220.82C375.12 220.34 375 219.76 374.8 219.08C374.6 218.4 374.38 217.82 374.14 217.34C377.74 217.22 381.44 217.04 385.24 216.8C389.08 216.52 392.84 216.22 396.52 215.9C400.2 215.54 403.64 215.14 406.84 214.7C410.04 214.26 412.82 213.8 415.18 213.32ZM392.74 230.54L396.4 232.22C395 233.9 393.34 235.54 391.42 237.14C389.54 238.74 387.5 240.26 385.3 241.7C383.14 243.1 380.94 244.38 378.7 245.54C376.46 246.66 374.28 247.62 372.16 248.42C371.96 248.06 371.68 247.66 371.32 247.22C371 246.78 370.66 246.34 370.3 245.9C369.94 245.46 369.6 245.12 369.28 244.88C371.36 244.2 373.5 243.36 375.7 242.36C377.94 241.32 380.12 240.18 382.24 238.94C384.36 237.66 386.32 236.32 388.12 234.92C389.92 233.48 391.46 232.02 392.74 230.54ZM401.32 230.66C402.6 232.1 404.16 233.5 406 234.86C407.84 236.18 409.82 237.44 411.94 238.64C414.1 239.84 416.3 240.92 418.54 241.88C420.82 242.8 423.06 243.56 425.26 244.16C424.94 244.44 424.58 244.82 424.18 245.3C423.82 245.74 423.46 246.2 423.1 246.68C422.74 247.12 422.44 247.54 422.2 247.94C420.04 247.22 417.82 246.32 415.54 245.24C413.26 244.12 411.02 242.88 408.82 241.52C406.66 240.12 404.64 238.64 402.76 237.08C400.88 235.52 399.24 233.92 397.84 232.28L401.32 230.66ZM410.68 219.32L415.54 220.7C414.54 222.34 413.5 224.02 412.42 225.74C411.34 227.42 410.34 228.84 409.42 230L405.7 228.68C406.26 227.84 406.86 226.88 407.5 225.8C408.14 224.68 408.74 223.56 409.3 222.44C409.86 221.32 410.32 220.28 410.68 219.32ZM379.54 221.84L383.44 220.4C384.4 221.6 385.34 222.96 386.26 224.48C387.18 225.96 387.82 227.26 388.18 228.38L384.16 230.06C383.76 228.94 383.12 227.6 382.24 226.04C381.4 224.48 380.5 223.08 379.54 221.84ZM378.52 244.64H416.74V267.62H412.24V248.24H382.84V267.86H378.52V244.64ZM380.5 253.46H414.7V256.64H380.5V253.46ZM380.5 262.22H414.7V265.76H380.5V262.22ZM394.9 246.56H399.22V264.5H394.9V246.56ZM442.521 244.591C442.521 249.96 441.817 254.903 440.411 259.42C439.019 263.923 437.023 268.071 434.424 271.864H429.992C431.015 270.457 431.967 268.724 432.847 266.665C433.742 264.619 434.523 262.375 435.191 259.932C435.859 257.474 436.377 254.939 436.746 252.325C437.13 249.697 437.322 247.119 437.322 244.591C437.322 241.21 436.995 237.78 436.342 234.3C435.688 230.82 434.808 227.588 433.7 224.605C432.592 221.622 431.356 219.193 429.992 217.318H434.424C437.023 221.111 439.019 225.266 440.411 229.783C441.817 234.286 442.521 239.222 442.521 244.591Z" fill="black"/>
</svg>
