<svg width="1303" height="1163" viewBox="0 0 1303 1163" fill="none" xmlns="http://www.w3.org/2000/svg">
<rect width="1303" height="1163" fill="#F5F5F5"/>
<rect width="1303" height="1163" fill="white"/>
<path d="M100.5 1082.5V175V88H1239V1082.5H100.5Z" stroke="black" stroke-width="3"/>
<path d="M259.5 477.5V919.5H1143.5V477.5H701.5V590V403.5H504.5V477.5H639.5H259.684" stroke="black"/>
<path d="M260 477.5H259" stroke="black"/>
<path d="M504.5 477.5V570.5M504.5 636.5V570.5M504.5 570.5H498H634.5" stroke="black"/>
<path d="M634 570.5V534.5M695.5 614.5V919.5" stroke="black"/>
<path d="M634 511.5V477.5" stroke="black"/>
<path d="M639.5 477.5H504.5" stroke="black"/>
<path d="M505 919.5V759.5" stroke="black"/>
<path d="M505 771.5H634.5V801.5H640.5H505" stroke="black"/>
<path d="M505 887.5H695.5" stroke="black"/>
<path d="M695.5 887.5L505 919" stroke="black"/>
<path d="M505 887.5L695.5 919.5" stroke="black"/>
<path d="M564.5 819.5H520.5V869H600.5" stroke="black"/>
<path d="M504.5 661V735" stroke="black"/>
<path d="M504.5 698H259.5" stroke="black"/>
<path d="M564.5 421.5H520.5V458.5H601.5" stroke="black"/>
<path d="M545.5 477.5V439.5H599.5M545.5 477.5H554.5V439.5H563.5V477.5H572.5V439.5H581.5V477.5H590.5V439.5H599.5M545.5 477.5H599.5V439.5" stroke="black"/>
<path d="M540 887V849H594M540 887H549V849H558V887H567V849H576V887H585V849H594M540 887H594V849" stroke="black"/>
<path d="M554.86 672.48C554.84 672.62 554.81 672.82 554.77 673.08C554.75 673.32 554.73 673.58 554.71 673.86C554.69 674.14 554.68 674.39 554.68 674.61C554.68 675.13 554.68 675.74 554.68 676.44C554.68 677.12 554.68 677.79 554.68 678.45C554.68 679.11 554.68 679.69 554.68 680.19C554.68 680.59 554.68 681.17 554.68 681.93C554.68 682.69 554.68 683.55 554.68 684.51C554.68 685.45 554.68 686.43 554.68 687.45C554.68 688.47 554.68 689.45 554.68 690.39C554.68 691.31 554.68 692.14 554.68 692.88C554.68 693.6 554.68 694.14 554.68 694.5C554.68 695.28 554.48 695.87 554.08 696.27C553.68 696.67 553.02 696.87 552.1 696.87C551.68 696.87 551.21 696.86 550.69 696.84C550.19 696.82 549.69 696.79 549.19 696.75C548.69 696.73 548.24 696.7 547.84 696.66L547.63 694.29C548.29 694.41 548.93 694.5 549.55 694.56C550.19 694.6 550.7 694.62 551.08 694.62C551.5 694.62 551.8 694.53 551.98 694.35C552.16 694.17 552.25 693.88 552.25 693.48C552.25 693.2 552.25 692.72 552.25 692.04C552.25 691.36 552.25 690.56 552.25 689.64C552.25 688.72 552.25 687.76 552.25 686.76C552.25 685.76 552.25 684.81 552.25 683.91C552.25 682.99 552.25 682.2 552.25 681.54C552.25 680.88 552.25 680.43 552.25 680.19C552.25 679.83 552.25 679.31 552.25 678.63C552.25 677.95 552.25 677.24 552.25 676.5C552.25 675.76 552.25 675.13 552.25 674.61C552.25 674.29 552.23 673.91 552.19 673.47C552.15 673.03 552.1 672.7 552.04 672.48H554.86ZM541.36 677.52C541.8 677.58 542.21 677.63 542.59 677.67C542.99 677.69 543.43 677.7 543.91 677.7C544.15 677.7 544.64 677.7 545.38 677.7C546.12 677.7 547.01 677.7 548.05 677.7C549.11 677.7 550.24 677.7 551.44 677.7C552.64 677.7 553.84 677.7 555.04 677.7C556.26 677.7 557.39 677.7 558.43 677.7C559.49 677.7 560.38 677.7 561.1 677.7C561.84 677.7 562.34 677.7 562.6 677.7C562.96 677.7 563.36 677.69 563.8 677.67C564.26 677.63 564.68 677.59 565.06 677.55V680.04C564.66 680 564.25 679.98 563.83 679.98C563.41 679.96 563.01 679.95 562.63 679.95C562.37 679.95 561.87 679.95 561.13 679.95C560.41 679.95 559.52 679.95 558.46 679.95C557.42 679.95 556.3 679.95 555.1 679.95C553.9 679.95 552.7 679.95 551.5 679.95C550.3 679.95 549.17 679.95 548.11 679.95C547.07 679.95 546.18 679.95 545.44 679.95C544.7 679.95 544.2 679.95 543.94 679.95C543.48 679.95 543.04 679.96 542.62 679.98C542.2 680 541.78 680.03 541.36 680.07V677.52ZM548.26 684.6C547.94 685.24 547.54 685.94 547.06 686.7C546.6 687.46 546.09 688.22 545.53 688.98C544.99 689.74 544.45 690.46 543.91 691.14C543.39 691.8 542.92 692.36 542.5 692.82L540.43 691.41C540.93 690.95 541.45 690.4 541.99 689.76C542.55 689.12 543.09 688.44 543.61 687.72C544.13 687 544.61 686.28 545.05 685.56C545.49 684.84 545.86 684.18 546.16 683.58L548.26 684.6ZM560.8 683.58C561.2 684.06 561.63 684.64 562.09 685.32C562.57 685.98 563.05 686.68 563.53 687.42C564.03 688.16 564.49 688.88 564.91 689.58C565.33 690.28 565.69 690.9 565.99 691.44L563.77 692.67C563.49 692.07 563.14 691.41 562.72 690.69C562.32 689.97 561.89 689.24 561.43 688.5C560.97 687.76 560.5 687.06 560.02 686.4C559.56 685.74 559.14 685.17 558.76 684.69L560.8 683.58ZM571.06 683.01C571.36 683.03 571.73 683.06 572.17 683.1C572.61 683.12 573.09 683.14 573.61 683.16C574.15 683.16 574.69 683.16 575.23 683.16C575.55 683.16 576.04 683.16 576.7 683.16C577.38 683.16 578.17 683.16 579.07 683.16C579.97 683.16 580.92 683.16 581.92 683.16C582.94 683.16 583.95 683.16 584.95 683.16C585.97 683.16 586.93 683.16 587.83 683.16C588.75 683.16 589.54 683.16 590.2 683.16C590.86 683.16 591.35 683.16 591.67 683.16C592.43 683.16 593.08 683.14 593.62 683.1C594.16 683.06 594.59 683.03 594.91 683.01V685.95C594.61 685.93 594.16 685.9 593.56 685.86C592.98 685.82 592.36 685.8 591.7 685.8C591.38 685.8 590.88 685.8 590.2 685.8C589.52 685.8 588.73 685.8 587.83 685.8C586.95 685.8 586 685.8 584.98 685.8C583.96 685.8 582.94 685.8 581.92 685.8C580.92 685.8 579.97 685.8 579.07 685.8C578.19 685.8 577.41 685.8 576.73 685.8C576.05 685.8 575.55 685.8 575.23 685.8C574.41 685.8 573.63 685.82 572.89 685.86C572.15 685.88 571.54 685.91 571.06 685.95V683.01ZM613.72 695.37C613.78 695.13 613.82 694.87 613.84 694.59C613.88 694.29 613.9 693.99 613.9 693.69C613.9 693.49 613.9 693.05 613.9 692.37C613.9 691.69 613.9 690.86 613.9 689.88C613.9 688.88 613.9 687.8 613.9 686.64C613.9 685.48 613.9 684.32 613.9 683.16C613.9 681.98 613.9 680.88 613.9 679.86C613.9 678.84 613.9 677.96 613.9 677.22C613.9 676.48 613.9 675.98 613.9 675.72C613.9 675.14 613.88 674.66 613.84 674.28C613.8 673.88 613.77 673.62 613.75 673.5H616.51C616.51 673.62 616.49 673.88 616.45 674.28C616.41 674.68 616.39 675.16 616.39 675.72C616.39 676 616.39 676.5 616.39 677.22C616.39 677.92 616.39 678.78 616.39 679.8C616.39 680.8 616.39 681.88 616.39 683.04C616.39 684.18 616.39 685.31 616.39 686.43C616.39 687.55 616.39 688.59 616.39 689.55C616.39 690.49 616.39 691.27 616.39 691.89C616.39 692.51 616.39 692.89 616.39 693.03C617.33 692.59 618.33 692.01 619.39 691.29C620.45 690.57 621.48 689.73 622.48 688.77C623.5 687.81 624.39 686.77 625.15 685.65L626.56 687.69C625.7 688.85 624.69 689.96 623.53 691.02C622.39 692.08 621.2 693.03 619.96 693.87C618.72 694.71 617.51 695.42 616.33 696C616.09 696.14 615.88 696.27 615.7 696.39C615.54 696.51 615.41 696.61 615.31 696.69L613.72 695.37ZM599.98 695.22C601.24 694.32 602.31 693.23 603.19 691.95C604.07 690.67 604.74 689.3 605.2 687.84C605.42 687.16 605.59 686.31 605.71 685.29C605.83 684.27 605.92 683.19 605.98 682.05C606.04 680.89 606.07 679.77 606.07 678.69C606.09 677.59 606.1 676.62 606.1 675.78C606.1 675.34 606.08 674.95 606.04 674.61C606 674.25 605.95 673.91 605.89 673.59H608.65C608.63 673.71 608.61 673.89 608.59 674.13C608.57 674.35 608.55 674.6 608.53 674.88C608.51 675.16 608.5 675.45 608.5 675.75C608.5 676.59 608.49 677.58 608.47 678.72C608.45 679.84 608.4 681.02 608.32 682.26C608.26 683.48 608.17 684.64 608.05 685.74C607.95 686.84 607.79 687.76 607.57 688.5C607.13 690.1 606.44 691.61 605.5 693.03C604.58 694.45 603.49 695.69 602.23 696.75L599.98 695.22Z" fill="black"/>
<path d="M546.605 527L540.639 505.182H543.324L547.884 522.952H548.097L552.741 505.182H555.724L560.369 522.952H560.582L565.142 505.182H567.827L561.861 527H559.134L554.318 509.614H554.148L549.332 527H546.605ZM587.65 512H585.008C584.852 511.24 584.578 510.572 584.188 509.997C583.804 509.422 583.335 508.939 582.781 508.548C582.235 508.151 581.627 507.852 580.96 507.653C580.292 507.455 579.596 507.355 578.872 507.355C577.551 507.355 576.354 507.689 575.281 508.357C574.216 509.024 573.367 510.008 572.735 511.308C572.11 512.607 571.798 514.202 571.798 516.091C571.798 517.98 572.11 519.575 572.735 520.874C573.367 522.174 574.216 523.158 575.281 523.825C576.354 524.493 577.551 524.827 578.872 524.827C579.596 524.827 580.292 524.727 580.96 524.528C581.627 524.33 582.235 524.035 582.781 523.644C583.335 523.246 583.804 522.76 584.188 522.185C584.578 521.602 584.852 520.935 585.008 520.182H587.65C587.451 521.297 587.089 522.295 586.563 523.175C586.038 524.056 585.384 524.805 584.603 525.423C583.822 526.034 582.945 526.499 581.972 526.819C581.006 527.138 579.972 527.298 578.872 527.298C577.011 527.298 575.356 526.844 573.907 525.935C572.458 525.026 571.318 523.733 570.487 522.057C569.656 520.381 569.241 518.392 569.241 516.091C569.241 513.79 569.656 511.801 570.487 510.125C571.318 508.449 572.458 507.156 573.907 506.247C575.356 505.338 577.011 504.884 578.872 504.884C579.972 504.884 581.006 505.043 581.972 505.363C582.945 505.683 583.822 506.151 584.603 506.769C585.384 507.38 586.038 508.126 586.563 509.006C587.089 509.88 587.451 510.878 587.65 512Z" fill="black"/>
<path d="M866.523 701V671.909H870.045V686.341H870.386L883.455 671.909H888.057L875.841 685.034L888.057 701H883.795L873.682 687.477L870.045 691.568V701H866.523ZM893.81 701H890.116L900.798 671.909H904.435L915.116 701H911.423L902.73 676.511H902.503L893.81 701ZM895.173 689.636H910.06V692.761H895.173V689.636ZM919.648 701V671.909H923.17V697.875H936.693V701H919.648ZM958.057 679.182C957.886 677.742 957.195 676.625 955.983 675.83C954.771 675.034 953.284 674.636 951.523 674.636C950.235 674.636 949.108 674.845 948.142 675.261C947.186 675.678 946.438 676.251 945.898 676.98C945.367 677.709 945.102 678.538 945.102 679.466C945.102 680.242 945.287 680.91 945.656 681.469C946.035 682.018 946.518 682.477 947.105 682.847C947.692 683.206 948.308 683.505 948.952 683.741C949.596 683.969 950.188 684.153 950.727 684.295L953.682 685.091C954.439 685.29 955.282 685.564 956.21 685.915C957.148 686.265 958.043 686.743 958.895 687.349C959.757 687.946 960.467 688.713 961.026 689.651C961.584 690.588 961.864 691.739 961.864 693.102C961.864 694.674 961.452 696.095 960.628 697.364C959.813 698.633 958.62 699.641 957.048 700.389C955.486 701.137 953.587 701.511 951.352 701.511C949.269 701.511 947.465 701.175 945.94 700.503C944.425 699.83 943.232 698.893 942.361 697.69C941.499 696.488 941.011 695.091 940.898 693.5H944.534C944.629 694.598 944.998 695.508 945.642 696.227C946.295 696.937 947.119 697.468 948.114 697.818C949.117 698.159 950.197 698.33 951.352 698.33C952.697 698.33 953.904 698.112 954.974 697.676C956.045 697.231 956.892 696.616 957.517 695.83C958.142 695.034 958.455 694.106 958.455 693.045C958.455 692.08 958.185 691.294 957.645 690.688C957.105 690.081 956.395 689.589 955.514 689.21C954.634 688.831 953.682 688.5 952.659 688.216L949.08 687.193C946.807 686.54 945.008 685.607 943.682 684.395C942.356 683.183 941.693 681.597 941.693 679.636C941.693 678.008 942.134 676.587 943.014 675.375C943.904 674.153 945.098 673.206 946.594 672.534C948.099 671.852 949.78 671.511 951.636 671.511C953.511 671.511 955.178 671.848 956.636 672.52C958.095 673.183 959.25 674.092 960.102 675.247C960.964 676.402 961.419 677.714 961.466 679.182H958.057Z" fill="black"/>
<path d="M535.517 311V307.165L549.92 291.398C551.611 289.551 553.003 287.946 554.097 286.582C555.19 285.205 556 283.912 556.526 282.705C557.065 281.483 557.335 280.205 557.335 278.869C557.335 277.335 556.966 276.007 556.227 274.885C555.503 273.763 554.509 272.896 553.244 272.286C551.98 271.675 550.56 271.369 548.983 271.369C547.307 271.369 545.844 271.717 544.594 272.413C543.358 273.095 542.399 274.054 541.717 275.29C541.05 276.526 540.716 277.974 540.716 279.636H535.688C535.688 277.08 536.277 274.835 537.456 272.903C538.635 270.972 540.24 269.466 542.271 268.386C544.317 267.307 546.611 266.767 549.153 266.767C551.71 266.767 553.976 267.307 555.95 268.386C557.925 269.466 559.473 270.922 560.595 272.754C561.717 274.587 562.278 276.625 562.278 278.869C562.278 280.474 561.987 282.044 561.405 283.578C560.837 285.098 559.842 286.795 558.422 288.67C557.016 290.531 555.062 292.804 552.562 295.489L542.761 305.972V306.312H563.045V311H535.517ZM593.668 268.64H605.068V272.3H593.668V268.64ZM594.928 299.96H618.988V303.62H594.928V299.96ZM594.808 309.62H619.708V313.46H594.808V309.62ZM591.628 261.32H595.708V283.52H591.628V261.32ZM587.728 282.86C590.008 282.42 592.728 281.84 595.888 281.12C599.088 280.4 602.328 279.66 605.608 278.9L605.968 282.38C603.008 283.14 600.028 283.9 597.028 284.66C594.068 285.42 591.368 286.1 588.928 286.7L587.728 282.86ZM607.648 261.32H611.788V280.1C611.788 280.86 611.888 281.36 612.088 281.6C612.328 281.8 612.868 281.9 613.708 281.9C613.948 281.9 614.328 281.9 614.848 281.9C615.368 281.9 615.948 281.9 616.588 281.9C617.228 281.9 617.808 281.9 618.328 281.9C618.888 281.9 619.308 281.9 619.588 281.9C620.108 281.9 620.488 281.78 620.728 281.54C620.968 281.26 621.128 280.7 621.208 279.86C621.328 279.02 621.408 277.8 621.448 276.2C621.928 276.56 622.528 276.9 623.248 277.22C623.968 277.5 624.628 277.7 625.228 277.82C625.108 279.9 624.868 281.52 624.508 282.68C624.148 283.84 623.608 284.64 622.888 285.08C622.208 285.52 621.248 285.74 620.008 285.74C619.808 285.74 619.388 285.74 618.748 285.74C618.108 285.74 617.388 285.74 616.588 285.74C615.828 285.74 615.128 285.74 614.488 285.74C613.888 285.74 613.468 285.74 613.228 285.74C611.748 285.74 610.588 285.58 609.748 285.26C608.948 284.94 608.388 284.38 608.068 283.58C607.788 282.74 607.648 281.58 607.648 280.1V261.32ZM620.788 265.1L623.968 268.1C622.128 269.26 619.988 270.38 617.548 271.46C615.148 272.5 612.828 273.44 610.588 274.28C610.508 273.84 610.328 273.34 610.048 272.78C609.768 272.22 609.508 271.72 609.268 271.28C610.668 270.68 612.088 270.04 613.528 269.36C614.968 268.68 616.308 267.98 617.548 267.26C618.828 266.5 619.908 265.78 620.788 265.1ZM603.568 284.42L608.128 285.38C607.608 286.74 607.068 288.1 606.508 289.46C605.988 290.82 605.488 292 605.008 293L601.108 292.04C601.548 291 602.008 289.76 602.488 288.32C603.008 286.84 603.368 285.54 603.568 284.42ZM592.708 290.48H621.868V315.44H617.488V294.32H596.908V315.68H592.708V290.48ZM572.308 263.18H585.748V267.26H576.328V315.8H572.308V263.18ZM584.368 263.18H585.148L585.808 262.94L588.748 264.74C588.228 266.38 587.648 268.12 587.008 269.96C586.408 271.76 585.768 273.58 585.088 275.42C584.448 277.26 583.808 279 583.168 280.64C585.208 283.12 586.548 285.44 587.188 287.6C587.828 289.76 588.148 291.76 588.148 293.6C588.188 295.16 588.028 296.56 587.668 297.8C587.308 299 586.708 299.9 585.868 300.5C585.508 300.78 585.068 301 584.548 301.16C584.068 301.32 583.528 301.46 582.928 301.58C582.368 301.62 581.748 301.66 581.068 301.7C580.428 301.7 579.788 301.68 579.148 301.64C579.108 301.08 578.988 300.44 578.788 299.72C578.628 298.96 578.388 298.28 578.068 297.68C578.708 297.72 579.288 297.76 579.808 297.8C580.328 297.8 580.788 297.78 581.188 297.74C581.988 297.74 582.608 297.58 583.048 297.26C583.448 296.94 583.728 296.4 583.888 295.64C584.088 294.84 584.188 294 584.188 293.12C584.148 291.48 583.808 289.66 583.168 287.66C582.528 285.66 581.208 283.48 579.208 281.12C579.688 279.76 580.168 278.32 580.648 276.8C581.168 275.28 581.648 273.76 582.088 272.24C582.568 270.72 582.988 269.3 583.348 267.98C583.748 266.62 584.088 265.42 584.368 264.38V263.18Z" fill="black"/>
<path d="M171.477 161.818V220H164.432V169.205H164.091L149.886 178.636V171.477L164.432 161.818H171.477ZM190.028 220L216.051 168.523V168.068H186.051V161.818H223.324V168.409L197.415 220H190.028ZM248.771 161.44V174.32H287.651V161.44H248.771ZM242.851 156.08H293.891V179.6H242.851V156.08ZM231.811 185.84H303.891V191.36H231.811V185.84ZM248.851 198.48H289.651V204H248.851V198.48ZM287.491 198.48H293.971C293.971 198.48 293.944 198.64 293.891 198.96C293.837 199.28 293.784 199.68 293.731 200.16C293.731 200.587 293.704 200.933 293.651 201.2C292.957 205.893 292.264 209.787 291.571 212.88C290.877 215.92 290.131 218.347 289.331 220.16C288.531 221.973 287.624 223.307 286.611 224.16C285.651 225.013 284.637 225.573 283.571 225.84C282.504 226.16 281.197 226.347 279.651 226.4C278.317 226.507 276.397 226.507 273.891 226.4C271.437 226.347 268.797 226.267 265.971 226.16C265.917 225.253 265.704 224.267 265.331 223.2C264.957 222.133 264.477 221.2 263.891 220.4C265.811 220.56 267.677 220.693 269.491 220.8C271.304 220.907 272.931 220.96 274.371 220.96C275.864 221.013 276.957 221.04 277.651 221.04C278.611 221.04 279.384 220.987 279.971 220.88C280.557 220.827 281.064 220.613 281.491 220.24C282.344 219.6 283.091 218.48 283.731 216.88C284.424 215.28 285.091 213.04 285.731 210.16C286.371 207.28 286.957 203.68 287.491 199.36V198.48ZM250.371 187.36L256.771 188.32C256.024 190.613 255.224 193.067 254.371 195.68C253.517 198.24 252.637 200.72 251.731 203.12C250.877 205.52 250.051 207.653 249.251 209.52L242.931 208.4C243.731 206.533 244.584 204.4 245.491 202C246.397 199.6 247.277 197.12 248.131 194.56C248.984 191.947 249.731 189.547 250.371 187.36ZM351.971 217.04H379.571V222.32H351.971V217.04ZM349.491 174.32H355.011V226.4H349.491V174.32ZM351.971 174.32H378.691V194.32H351.971V189.28H373.091V179.36H351.971V174.32ZM344.611 161.52H383.971V175.04H378.291V166.48H350.051V175.04H344.611V161.52ZM360.851 152.72H366.771V164.24H360.851V152.72ZM351.971 201.04H382.051V225.84H376.451V206.16H351.971V201.04ZM326.931 166.32H332.051V176.24H326.931V166.32ZM316.451 173.92H321.891V218.56H316.451V173.92ZM319.811 184.72H338.451V188.96H319.811V184.72ZM310.931 217.6C313.224 217.067 315.811 216.48 318.691 215.84C321.624 215.147 324.717 214.4 327.971 213.6C331.277 212.747 334.557 211.92 337.811 211.12L338.451 215.92C333.971 217.253 329.464 218.56 324.931 219.84C320.451 221.067 316.424 222.187 312.851 223.2L310.931 217.6ZM329.811 205.12L334.611 202.96C336.051 204.827 337.437 206.853 338.771 209.04C340.157 211.173 341.357 213.307 342.371 215.44C343.437 217.52 344.237 219.387 344.771 221.04L339.651 223.52C339.171 221.867 338.424 219.973 337.411 217.84C336.397 215.653 335.224 213.467 333.891 211.28C332.611 209.04 331.251 206.987 329.811 205.12ZM319.411 173.92H341.091V200H319.411V195.44H335.731V178.48H319.411V173.92ZM325.331 152.8H328.531V154.08H330.291V155.76C329.224 157.787 327.891 160.053 326.291 162.56C324.691 165.013 322.797 167.52 320.611 170.08C318.477 172.587 315.997 174.987 313.171 177.28C312.904 176.853 312.531 176.4 312.051 175.92C311.624 175.44 311.171 174.987 310.691 174.56C310.211 174.08 309.757 173.707 309.331 173.44C311.944 171.467 314.264 169.28 316.291 166.88C318.317 164.48 320.077 162.08 321.571 159.68C323.117 157.227 324.371 154.933 325.331 152.8ZM326.851 152.8H331.171C332.771 154.187 334.424 155.707 336.131 157.36C337.837 159.013 339.411 160.667 340.851 162.32C342.291 163.973 343.437 165.493 344.291 166.88L340.371 171.36C339.517 170.027 338.424 168.48 337.091 166.72C335.757 164.96 334.291 163.2 332.691 161.44C331.091 159.68 329.491 158.187 327.891 156.96H326.851V152.8Z" fill="black"/>
<path d="M505 772L634.5 801.5" stroke="black"/>
<path d="M634.5 772L505 801.5" stroke="black"/>
</svg>
