<svg width="1361" height="292" viewBox="0 0 1361 292" fill="none" xmlns="http://www.w3.org/2000/svg">
<rect width="1361" height="292" fill="#1E1E1E"/>
<rect width="1361" height="292" fill="white"/>
<path d="M34.9432 147.545V165H32.8295V149.761H32.7273L28.4659 152.591V150.443L32.8295 147.545H34.9432ZM45.8608 165.239C44.7358 165.239 43.733 165.045 42.8523 164.659C41.9773 164.273 41.2813 163.736 40.7642 163.048C40.2528 162.355 39.9744 161.551 39.929 160.636H42.0767C42.1222 161.199 42.3153 161.685 42.6562 162.094C42.9972 162.497 43.4432 162.81 43.9943 163.031C44.5455 163.253 45.1563 163.364 45.8267 163.364C46.5767 163.364 47.2415 163.233 47.821 162.972C48.4006 162.71 48.8551 162.347 49.1847 161.881C49.5142 161.415 49.679 160.875 49.679 160.261C49.679 159.619 49.5199 159.054 49.2017 158.565C48.8835 158.071 48.4176 157.685 47.804 157.406C47.1903 157.128 46.4403 156.989 45.554 156.989H44.1562V155.114H45.554C46.2472 155.114 46.8551 154.989 47.3778 154.739C47.9063 154.489 48.3182 154.136 48.6136 153.682C48.9148 153.227 49.0653 152.693 49.0653 152.08C49.0653 151.489 48.9347 150.974 48.6733 150.537C48.4119 150.099 48.0426 149.759 47.5653 149.514C47.0938 149.27 46.5369 149.148 45.8949 149.148C45.2926 149.148 44.7244 149.259 44.1903 149.48C43.6619 149.696 43.2301 150.011 42.8949 150.426C42.5597 150.835 42.3778 151.33 42.3494 151.909H40.304C40.3381 150.994 40.6136 150.193 41.1307 149.506C41.6477 148.812 42.3239 148.273 43.1591 147.886C44 147.5 44.9233 147.307 45.929 147.307C47.0085 147.307 47.9347 147.526 48.7074 147.963C49.4801 148.395 50.0739 148.966 50.4886 149.676C50.9034 150.386 51.1108 151.153 51.1108 151.977C51.1108 152.96 50.8523 153.798 50.3352 154.491C49.8239 155.185 49.1278 155.665 48.2472 155.932V156.068C49.3494 156.25 50.2102 156.719 50.8295 157.474C51.4489 158.224 51.7585 159.153 51.7585 160.261C51.7585 161.21 51.5 162.062 50.983 162.818C50.4716 163.568 49.7727 164.159 48.8864 164.591C48 165.023 46.9915 165.239 45.8608 165.239ZM61.3807 147.545V165H59.267V149.761H59.1648L54.9034 152.591V150.443L59.267 147.545H61.3807ZM66.4006 165V163.466L72.1619 157.159C72.8381 156.42 73.3949 155.778 73.8324 155.233C74.2699 154.682 74.5938 154.165 74.804 153.682C75.0199 153.193 75.1278 152.682 75.1278 152.148C75.1278 151.534 74.9801 151.003 74.6847 150.554C74.3949 150.105 73.9972 149.759 73.4915 149.514C72.9858 149.27 72.4176 149.148 71.7869 149.148C71.1165 149.148 70.5312 149.287 70.0312 149.565C69.5369 149.838 69.1534 150.222 68.8807 150.716C68.6136 151.21 68.4801 151.79 68.4801 152.455H66.4688C66.4688 151.432 66.7045 150.534 67.1761 149.761C67.6477 148.989 68.2898 148.386 69.1023 147.955C69.9205 147.523 70.8381 147.307 71.8551 147.307C72.8778 147.307 73.7841 147.523 74.5739 147.955C75.3636 148.386 75.983 148.969 76.4318 149.702C76.8807 150.435 77.1051 151.25 77.1051 152.148C77.1051 152.79 76.9886 153.418 76.7557 154.031C76.5284 154.639 76.1307 155.318 75.5625 156.068C75 156.812 74.2188 157.722 73.2188 158.795L69.2983 162.989V163.125H77.4119V165H66.4006Z" fill="black"/>
<path d="M36.9432 221.545V239H34.8295V223.761H34.7273L30.4659 226.591V224.443L34.8295 221.545H36.9432ZM47.8608 239.239C46.7358 239.239 45.733 239.045 44.8523 238.659C43.9773 238.273 43.2813 237.736 42.7642 237.048C42.2528 236.355 41.9744 235.551 41.929 234.636H44.0767C44.1222 235.199 44.3153 235.685 44.6562 236.094C44.9972 236.497 45.4432 236.81 45.9943 237.031C46.5455 237.253 47.1563 237.364 47.8267 237.364C48.5767 237.364 49.2415 237.233 49.821 236.972C50.4006 236.71 50.8551 236.347 51.1847 235.881C51.5142 235.415 51.679 234.875 51.679 234.261C51.679 233.619 51.5199 233.054 51.2017 232.565C50.8835 232.071 50.4176 231.685 49.804 231.406C49.1903 231.128 48.4403 230.989 47.554 230.989H46.1562V229.114H47.554C48.2472 229.114 48.8551 228.989 49.3778 228.739C49.9063 228.489 50.3182 228.136 50.6136 227.682C50.9148 227.227 51.0653 226.693 51.0653 226.08C51.0653 225.489 50.9347 224.974 50.6733 224.537C50.4119 224.099 50.0426 223.759 49.5653 223.514C49.0938 223.27 48.5369 223.148 47.8949 223.148C47.2926 223.148 46.7244 223.259 46.1903 223.48C45.6619 223.696 45.2301 224.011 44.8949 224.426C44.5597 224.835 44.3778 225.33 44.3494 225.909H42.304C42.3381 224.994 42.6136 224.193 43.1307 223.506C43.6477 222.812 44.3239 222.273 45.1591 221.886C46 221.5 46.9233 221.307 47.929 221.307C49.0085 221.307 49.9347 221.526 50.7074 221.963C51.4801 222.395 52.0739 222.966 52.4886 223.676C52.9034 224.386 53.1108 225.153 53.1108 225.977C53.1108 226.96 52.8523 227.798 52.3352 228.491C51.8239 229.185 51.1278 229.665 50.2472 229.932V230.068C51.3494 230.25 52.2102 230.719 52.8295 231.474C53.4489 232.224 53.7585 233.153 53.7585 234.261C53.7585 235.21 53.5 236.062 52.983 236.818C52.4716 237.568 51.7727 238.159 50.8864 238.591C50 239.023 48.9915 239.239 47.8608 239.239ZM63.3807 221.545V239H61.267V223.761H61.1648L56.9034 226.591V224.443L61.267 221.545H63.3807ZM74.5369 221.545V239H72.4233V223.761H72.321L68.0597 226.591V224.443L72.4233 221.545H74.5369Z" fill="black"/>
<path d="M252.943 171.545V189H250.83V173.761H250.727L246.466 176.591V174.443L250.83 171.545H252.943ZM263.861 189.239C262.736 189.239 261.733 189.045 260.852 188.659C259.977 188.273 259.281 187.736 258.764 187.048C258.253 186.355 257.974 185.551 257.929 184.636H260.077C260.122 185.199 260.315 185.685 260.656 186.094C260.997 186.497 261.443 186.81 261.994 187.031C262.545 187.253 263.156 187.364 263.827 187.364C264.577 187.364 265.241 187.233 265.821 186.972C266.401 186.71 266.855 186.347 267.185 185.881C267.514 185.415 267.679 184.875 267.679 184.261C267.679 183.619 267.52 183.054 267.202 182.565C266.884 182.071 266.418 181.685 265.804 181.406C265.19 181.128 264.44 180.989 263.554 180.989H262.156V179.114H263.554C264.247 179.114 264.855 178.989 265.378 178.739C265.906 178.489 266.318 178.136 266.614 177.682C266.915 177.227 267.065 176.693 267.065 176.08C267.065 175.489 266.935 174.974 266.673 174.537C266.412 174.099 266.043 173.759 265.565 173.514C265.094 173.27 264.537 173.148 263.895 173.148C263.293 173.148 262.724 173.259 262.19 173.48C261.662 173.696 261.23 174.011 260.895 174.426C260.56 174.835 260.378 175.33 260.349 175.909H258.304C258.338 174.994 258.614 174.193 259.131 173.506C259.648 172.812 260.324 172.273 261.159 171.886C262 171.5 262.923 171.307 263.929 171.307C265.009 171.307 265.935 171.526 266.707 171.963C267.48 172.395 268.074 172.966 268.489 173.676C268.903 174.386 269.111 175.153 269.111 175.977C269.111 176.96 268.852 177.798 268.335 178.491C267.824 179.185 267.128 179.665 266.247 179.932V180.068C267.349 180.25 268.21 180.719 268.83 181.474C269.449 182.224 269.759 183.153 269.759 184.261C269.759 185.21 269.5 186.062 268.983 186.818C268.472 187.568 267.773 188.159 266.886 188.591C266 189.023 264.991 189.239 263.861 189.239ZM279.381 171.545V189H277.267V173.761H277.165L272.903 176.591V174.443L277.267 171.545H279.381ZM290.298 189.239C289.173 189.239 288.17 189.045 287.29 188.659C286.415 188.273 285.719 187.736 285.202 187.048C284.69 186.355 284.412 185.551 284.366 184.636H286.514C286.56 185.199 286.753 185.685 287.094 186.094C287.435 186.497 287.881 186.81 288.432 187.031C288.983 187.253 289.594 187.364 290.264 187.364C291.014 187.364 291.679 187.233 292.259 186.972C292.838 186.71 293.293 186.347 293.622 185.881C293.952 185.415 294.116 184.875 294.116 184.261C294.116 183.619 293.957 183.054 293.639 182.565C293.321 182.071 292.855 181.685 292.241 181.406C291.628 181.128 290.878 180.989 289.991 180.989H288.594V179.114H289.991C290.685 179.114 291.293 178.989 291.815 178.739C292.344 178.489 292.756 178.136 293.051 177.682C293.352 177.227 293.503 176.693 293.503 176.08C293.503 175.489 293.372 174.974 293.111 174.537C292.849 174.099 292.48 173.759 292.003 173.514C291.531 173.27 290.974 173.148 290.332 173.148C289.73 173.148 289.162 173.259 288.628 173.48C288.099 173.696 287.668 174.011 287.332 174.426C286.997 174.835 286.815 175.33 286.787 175.909H284.741C284.776 174.994 285.051 174.193 285.568 173.506C286.085 172.812 286.761 172.273 287.597 171.886C288.438 171.5 289.361 171.307 290.366 171.307C291.446 171.307 292.372 171.526 293.145 171.963C293.918 172.395 294.511 172.966 294.926 173.676C295.341 174.386 295.548 175.153 295.548 175.977C295.548 176.96 295.29 177.798 294.773 178.491C294.261 179.185 293.565 179.665 292.685 179.932V180.068C293.787 180.25 294.648 180.719 295.267 181.474C295.886 182.224 296.196 183.153 296.196 184.261C296.196 185.21 295.938 186.062 295.42 186.818C294.909 187.568 294.21 188.159 293.324 188.591C292.438 189.023 291.429 189.239 290.298 189.239Z" fill="black"/>
<path d="M413.943 228.545V246H411.83V230.761H411.727L407.466 233.591V231.443L411.83 228.545H413.943ZM424.861 246.239C423.736 246.239 422.733 246.045 421.852 245.659C420.977 245.273 420.281 244.736 419.764 244.048C419.253 243.355 418.974 242.551 418.929 241.636H421.077C421.122 242.199 421.315 242.685 421.656 243.094C421.997 243.497 422.443 243.81 422.994 244.031C423.545 244.253 424.156 244.364 424.827 244.364C425.577 244.364 426.241 244.233 426.821 243.972C427.401 243.71 427.855 243.347 428.185 242.881C428.514 242.415 428.679 241.875 428.679 241.261C428.679 240.619 428.52 240.054 428.202 239.565C427.884 239.071 427.418 238.685 426.804 238.406C426.19 238.128 425.44 237.989 424.554 237.989H423.156V236.114H424.554C425.247 236.114 425.855 235.989 426.378 235.739C426.906 235.489 427.318 235.136 427.614 234.682C427.915 234.227 428.065 233.693 428.065 233.08C428.065 232.489 427.935 231.974 427.673 231.537C427.412 231.099 427.043 230.759 426.565 230.514C426.094 230.27 425.537 230.148 424.895 230.148C424.293 230.148 423.724 230.259 423.19 230.48C422.662 230.696 422.23 231.011 421.895 231.426C421.56 231.835 421.378 232.33 421.349 232.909H419.304C419.338 231.994 419.614 231.193 420.131 230.506C420.648 229.812 421.324 229.273 422.159 228.886C423 228.5 423.923 228.307 424.929 228.307C426.009 228.307 426.935 228.526 427.707 228.963C428.48 229.395 429.074 229.966 429.489 230.676C429.903 231.386 430.111 232.153 430.111 232.977C430.111 233.96 429.852 234.798 429.335 235.491C428.824 236.185 428.128 236.665 427.247 236.932V237.068C428.349 237.25 429.21 237.719 429.83 238.474C430.449 239.224 430.759 240.153 430.759 241.261C430.759 242.21 430.5 243.062 429.983 243.818C429.472 244.568 428.773 245.159 427.886 245.591C427 246.023 425.991 246.239 424.861 246.239ZM434.244 246V244.466L440.006 238.159C440.682 237.42 441.239 236.778 441.676 236.233C442.114 235.682 442.438 235.165 442.648 234.682C442.864 234.193 442.972 233.682 442.972 233.148C442.972 232.534 442.824 232.003 442.528 231.554C442.239 231.105 441.841 230.759 441.335 230.514C440.83 230.27 440.261 230.148 439.631 230.148C438.96 230.148 438.375 230.287 437.875 230.565C437.381 230.838 436.997 231.222 436.724 231.716C436.457 232.21 436.324 232.79 436.324 233.455H434.312C434.312 232.432 434.548 231.534 435.02 230.761C435.491 229.989 436.134 229.386 436.946 228.955C437.764 228.523 438.682 228.307 439.699 228.307C440.722 228.307 441.628 228.523 442.418 228.955C443.207 229.386 443.827 229.969 444.276 230.702C444.724 231.435 444.949 232.25 444.949 233.148C444.949 233.79 444.832 234.418 444.599 235.031C444.372 235.639 443.974 236.318 443.406 237.068C442.844 237.812 442.062 238.722 441.062 239.795L437.142 243.989V244.125H445.256V246H434.244ZM454.912 228.545V246H452.798V230.761H452.696L448.435 233.591V231.443L452.798 228.545H454.912Z" fill="black"/>
<path d="M412.943 151.545V169H410.83V153.761H410.727L406.466 156.591V154.443L410.83 151.545H412.943ZM423.861 169.239C422.736 169.239 421.733 169.045 420.852 168.659C419.977 168.273 419.281 167.736 418.764 167.048C418.253 166.355 417.974 165.551 417.929 164.636H420.077C420.122 165.199 420.315 165.685 420.656 166.094C420.997 166.497 421.443 166.81 421.994 167.031C422.545 167.253 423.156 167.364 423.827 167.364C424.577 167.364 425.241 167.233 425.821 166.972C426.401 166.71 426.855 166.347 427.185 165.881C427.514 165.415 427.679 164.875 427.679 164.261C427.679 163.619 427.52 163.054 427.202 162.565C426.884 162.071 426.418 161.685 425.804 161.406C425.19 161.128 424.44 160.989 423.554 160.989H422.156V159.114H423.554C424.247 159.114 424.855 158.989 425.378 158.739C425.906 158.489 426.318 158.136 426.614 157.682C426.915 157.227 427.065 156.693 427.065 156.08C427.065 155.489 426.935 154.974 426.673 154.537C426.412 154.099 426.043 153.759 425.565 153.514C425.094 153.27 424.537 153.148 423.895 153.148C423.293 153.148 422.724 153.259 422.19 153.48C421.662 153.696 421.23 154.011 420.895 154.426C420.56 154.835 420.378 155.33 420.349 155.909H418.304C418.338 154.994 418.614 154.193 419.131 153.506C419.648 152.812 420.324 152.273 421.159 151.886C422 151.5 422.923 151.307 423.929 151.307C425.009 151.307 425.935 151.526 426.707 151.963C427.48 152.395 428.074 152.966 428.489 153.676C428.903 154.386 429.111 155.153 429.111 155.977C429.111 156.96 428.852 157.798 428.335 158.491C427.824 159.185 427.128 159.665 426.247 159.932V160.068C427.349 160.25 428.21 160.719 428.83 161.474C429.449 162.224 429.759 163.153 429.759 164.261C429.759 165.21 429.5 166.062 428.983 166.818C428.472 167.568 427.773 168.159 426.886 168.591C426 169.023 424.991 169.239 423.861 169.239ZM433.244 169V167.466L439.006 161.159C439.682 160.42 440.239 159.778 440.676 159.233C441.114 158.682 441.438 158.165 441.648 157.682C441.864 157.193 441.972 156.682 441.972 156.148C441.972 155.534 441.824 155.003 441.528 154.554C441.239 154.105 440.841 153.759 440.335 153.514C439.83 153.27 439.261 153.148 438.631 153.148C437.96 153.148 437.375 153.287 436.875 153.565C436.381 153.838 435.997 154.222 435.724 154.716C435.457 155.21 435.324 155.79 435.324 156.455H433.312C433.312 155.432 433.548 154.534 434.02 153.761C434.491 152.989 435.134 152.386 435.946 151.955C436.764 151.523 437.682 151.307 438.699 151.307C439.722 151.307 440.628 151.523 441.418 151.955C442.207 152.386 442.827 152.969 443.276 153.702C443.724 154.435 443.949 155.25 443.949 156.148C443.949 156.79 443.832 157.418 443.599 158.031C443.372 158.639 442.974 159.318 442.406 160.068C441.844 160.812 441.062 161.722 440.062 162.795L436.142 166.989V167.125H444.256V169H433.244ZM447.776 169V167.466L453.537 161.159C454.213 160.42 454.77 159.778 455.207 159.233C455.645 158.682 455.969 158.165 456.179 157.682C456.395 157.193 456.503 156.682 456.503 156.148C456.503 155.534 456.355 155.003 456.06 154.554C455.77 154.105 455.372 153.759 454.866 153.514C454.361 153.27 453.793 153.148 453.162 153.148C452.491 153.148 451.906 153.287 451.406 153.565C450.912 153.838 450.528 154.222 450.256 154.716C449.989 155.21 449.855 155.79 449.855 156.455H447.844C447.844 155.432 448.08 154.534 448.551 153.761C449.023 152.989 449.665 152.386 450.477 151.955C451.295 151.523 452.213 151.307 453.23 151.307C454.253 151.307 455.159 151.523 455.949 151.955C456.739 152.386 457.358 152.969 457.807 153.702C458.256 154.435 458.48 155.25 458.48 156.148C458.48 156.79 458.364 157.418 458.131 158.031C457.903 158.639 457.506 159.318 456.938 160.068C456.375 160.812 455.594 161.722 454.594 162.795L450.673 166.989V167.125H458.787V169H447.776Z" fill="black"/>
<path d="M614.943 178.545V196H612.83V180.761H612.727L608.466 183.591V181.443L612.83 178.545H614.943ZM625.861 196.239C624.736 196.239 623.733 196.045 622.852 195.659C621.977 195.273 621.281 194.736 620.764 194.048C620.253 193.355 619.974 192.551 619.929 191.636H622.077C622.122 192.199 622.315 192.685 622.656 193.094C622.997 193.497 623.443 193.81 623.994 194.031C624.545 194.253 625.156 194.364 625.827 194.364C626.577 194.364 627.241 194.233 627.821 193.972C628.401 193.71 628.855 193.347 629.185 192.881C629.514 192.415 629.679 191.875 629.679 191.261C629.679 190.619 629.52 190.054 629.202 189.565C628.884 189.071 628.418 188.685 627.804 188.406C627.19 188.128 626.44 187.989 625.554 187.989H624.156V186.114H625.554C626.247 186.114 626.855 185.989 627.378 185.739C627.906 185.489 628.318 185.136 628.614 184.682C628.915 184.227 629.065 183.693 629.065 183.08C629.065 182.489 628.935 181.974 628.673 181.537C628.412 181.099 628.043 180.759 627.565 180.514C627.094 180.27 626.537 180.148 625.895 180.148C625.293 180.148 624.724 180.259 624.19 180.48C623.662 180.696 623.23 181.011 622.895 181.426C622.56 181.835 622.378 182.33 622.349 182.909H620.304C620.338 181.994 620.614 181.193 621.131 180.506C621.648 179.812 622.324 179.273 623.159 178.886C624 178.5 624.923 178.307 625.929 178.307C627.009 178.307 627.935 178.526 628.707 178.963C629.48 179.395 630.074 179.966 630.489 180.676C630.903 181.386 631.111 182.153 631.111 182.977C631.111 183.96 630.852 184.798 630.335 185.491C629.824 186.185 629.128 186.665 628.247 186.932V187.068C629.349 187.25 630.21 187.719 630.83 188.474C631.449 189.224 631.759 190.153 631.759 191.261C631.759 192.21 631.5 193.062 630.983 193.818C630.472 194.568 629.773 195.159 628.886 195.591C628 196.023 626.991 196.239 625.861 196.239ZM635.244 196V194.466L641.006 188.159C641.682 187.42 642.239 186.778 642.676 186.233C643.114 185.682 643.438 185.165 643.648 184.682C643.864 184.193 643.972 183.682 643.972 183.148C643.972 182.534 643.824 182.003 643.528 181.554C643.239 181.105 642.841 180.759 642.335 180.514C641.83 180.27 641.261 180.148 640.631 180.148C639.96 180.148 639.375 180.287 638.875 180.565C638.381 180.838 637.997 181.222 637.724 181.716C637.457 182.21 637.324 182.79 637.324 183.455H635.312C635.312 182.432 635.548 181.534 636.02 180.761C636.491 179.989 637.134 179.386 637.946 178.955C638.764 178.523 639.682 178.307 640.699 178.307C641.722 178.307 642.628 178.523 643.418 178.955C644.207 179.386 644.827 179.969 645.276 180.702C645.724 181.435 645.949 182.25 645.949 183.148C645.949 183.79 645.832 184.418 645.599 185.031C645.372 185.639 644.974 186.318 644.406 187.068C643.844 187.812 643.062 188.722 642.062 189.795L638.142 193.989V194.125H646.256V196H635.244ZM655.673 196.239C654.548 196.239 653.545 196.045 652.665 195.659C651.79 195.273 651.094 194.736 650.577 194.048C650.065 193.355 649.787 192.551 649.741 191.636H651.889C651.935 192.199 652.128 192.685 652.469 193.094C652.81 193.497 653.256 193.81 653.807 194.031C654.358 194.253 654.969 194.364 655.639 194.364C656.389 194.364 657.054 194.233 657.634 193.972C658.213 193.71 658.668 193.347 658.997 192.881C659.327 192.415 659.491 191.875 659.491 191.261C659.491 190.619 659.332 190.054 659.014 189.565C658.696 189.071 658.23 188.685 657.616 188.406C657.003 188.128 656.253 187.989 655.366 187.989H653.969V186.114H655.366C656.06 186.114 656.668 185.989 657.19 185.739C657.719 185.489 658.131 185.136 658.426 184.682C658.727 184.227 658.878 183.693 658.878 183.08C658.878 182.489 658.747 181.974 658.486 181.537C658.224 181.099 657.855 180.759 657.378 180.514C656.906 180.27 656.349 180.148 655.707 180.148C655.105 180.148 654.537 180.259 654.003 180.48C653.474 180.696 653.043 181.011 652.707 181.426C652.372 181.835 652.19 182.33 652.162 182.909H650.116C650.151 181.994 650.426 181.193 650.943 180.506C651.46 179.812 652.136 179.273 652.972 178.886C653.813 178.5 654.736 178.307 655.741 178.307C656.821 178.307 657.747 178.526 658.52 178.963C659.293 179.395 659.886 179.966 660.301 180.676C660.716 181.386 660.923 182.153 660.923 182.977C660.923 183.96 660.665 184.798 660.148 185.491C659.636 186.185 658.94 186.665 658.06 186.932V187.068C659.162 187.25 660.023 187.719 660.642 188.474C661.261 189.224 661.571 190.153 661.571 191.261C661.571 192.21 661.313 193.062 660.795 193.818C660.284 194.568 659.585 195.159 658.699 195.591C657.813 196.023 656.804 196.239 655.673 196.239Z" fill="black"/>
<path d="M786.943 195.545V213H784.83V197.761H784.727L780.466 200.591V198.443L784.83 195.545H786.943ZM797.861 213.239C796.736 213.239 795.733 213.045 794.852 212.659C793.977 212.273 793.281 211.736 792.764 211.048C792.253 210.355 791.974 209.551 791.929 208.636H794.077C794.122 209.199 794.315 209.685 794.656 210.094C794.997 210.497 795.443 210.81 795.994 211.031C796.545 211.253 797.156 211.364 797.827 211.364C798.577 211.364 799.241 211.233 799.821 210.972C800.401 210.71 800.855 210.347 801.185 209.881C801.514 209.415 801.679 208.875 801.679 208.261C801.679 207.619 801.52 207.054 801.202 206.565C800.884 206.071 800.418 205.685 799.804 205.406C799.19 205.128 798.44 204.989 797.554 204.989H796.156V203.114H797.554C798.247 203.114 798.855 202.989 799.378 202.739C799.906 202.489 800.318 202.136 800.614 201.682C800.915 201.227 801.065 200.693 801.065 200.08C801.065 199.489 800.935 198.974 800.673 198.537C800.412 198.099 800.043 197.759 799.565 197.514C799.094 197.27 798.537 197.148 797.895 197.148C797.293 197.148 796.724 197.259 796.19 197.48C795.662 197.696 795.23 198.011 794.895 198.426C794.56 198.835 794.378 199.33 794.349 199.909H792.304C792.338 198.994 792.614 198.193 793.131 197.506C793.648 196.812 794.324 196.273 795.159 195.886C796 195.5 796.923 195.307 797.929 195.307C799.009 195.307 799.935 195.526 800.707 195.963C801.48 196.395 802.074 196.966 802.489 197.676C802.903 198.386 803.111 199.153 803.111 199.977C803.111 200.96 802.852 201.798 802.335 202.491C801.824 203.185 801.128 203.665 800.247 203.932V204.068C801.349 204.25 802.21 204.719 802.83 205.474C803.449 206.224 803.759 207.153 803.759 208.261C803.759 209.21 803.5 210.062 802.983 210.818C802.472 211.568 801.773 212.159 800.886 212.591C800 213.023 798.991 213.239 797.861 213.239ZM813.142 213.239C812.017 213.239 811.014 213.045 810.134 212.659C809.259 212.273 808.563 211.736 808.045 211.048C807.534 210.355 807.256 209.551 807.21 208.636H809.358C809.403 209.199 809.597 209.685 809.938 210.094C810.278 210.497 810.724 210.81 811.276 211.031C811.827 211.253 812.438 211.364 813.108 211.364C813.858 211.364 814.523 211.233 815.102 210.972C815.682 210.71 816.136 210.347 816.466 209.881C816.795 209.415 816.96 208.875 816.96 208.261C816.96 207.619 816.801 207.054 816.483 206.565C816.165 206.071 815.699 205.685 815.085 205.406C814.472 205.128 813.722 204.989 812.835 204.989H811.438V203.114H812.835C813.528 203.114 814.136 202.989 814.659 202.739C815.188 202.489 815.599 202.136 815.895 201.682C816.196 201.227 816.347 200.693 816.347 200.08C816.347 199.489 816.216 198.974 815.955 198.537C815.693 198.099 815.324 197.759 814.847 197.514C814.375 197.27 813.818 197.148 813.176 197.148C812.574 197.148 812.006 197.259 811.472 197.48C810.943 197.696 810.511 198.011 810.176 198.426C809.841 198.835 809.659 199.33 809.631 199.909H807.585C807.619 198.994 807.895 198.193 808.412 197.506C808.929 196.812 809.605 196.273 810.44 195.886C811.281 195.5 812.205 195.307 813.21 195.307C814.29 195.307 815.216 195.526 815.989 195.963C816.761 196.395 817.355 196.966 817.77 197.676C818.185 198.386 818.392 199.153 818.392 199.977C818.392 200.96 818.134 201.798 817.616 202.491C817.105 203.185 816.409 203.665 815.528 203.932V204.068C816.631 204.25 817.491 204.719 818.111 205.474C818.73 206.224 819.04 207.153 819.04 208.261C819.04 209.21 818.781 210.062 818.264 210.818C817.753 211.568 817.054 212.159 816.168 212.591C815.281 213.023 814.273 213.239 813.142 213.239ZM828.662 195.545V213H826.548V197.761H826.446L822.185 200.591V198.443L826.548 195.545H828.662Z" fill="black"/>
<path d="M1174.94 189.545V207H1172.83V191.761H1172.73L1168.47 194.591V192.443L1172.83 189.545H1174.94ZM1185.86 207.239C1184.74 207.239 1183.73 207.045 1182.85 206.659C1181.98 206.273 1181.28 205.736 1180.76 205.048C1180.25 204.355 1179.97 203.551 1179.93 202.636H1182.08C1182.12 203.199 1182.32 203.685 1182.66 204.094C1183 204.497 1183.44 204.81 1183.99 205.031C1184.55 205.253 1185.16 205.364 1185.83 205.364C1186.58 205.364 1187.24 205.233 1187.82 204.972C1188.4 204.71 1188.86 204.347 1189.18 203.881C1189.51 203.415 1189.68 202.875 1189.68 202.261C1189.68 201.619 1189.52 201.054 1189.2 200.565C1188.88 200.071 1188.42 199.685 1187.8 199.406C1187.19 199.128 1186.44 198.989 1185.55 198.989H1184.16V197.114H1185.55C1186.25 197.114 1186.86 196.989 1187.38 196.739C1187.91 196.489 1188.32 196.136 1188.61 195.682C1188.91 195.227 1189.07 194.693 1189.07 194.08C1189.07 193.489 1188.93 192.974 1188.67 192.537C1188.41 192.099 1188.04 191.759 1187.57 191.514C1187.09 191.27 1186.54 191.148 1185.89 191.148C1185.29 191.148 1184.72 191.259 1184.19 191.48C1183.66 191.696 1183.23 192.011 1182.89 192.426C1182.56 192.835 1182.38 193.33 1182.35 193.909H1180.3C1180.34 192.994 1180.61 192.193 1181.13 191.506C1181.65 190.812 1182.32 190.273 1183.16 189.886C1184 189.5 1184.92 189.307 1185.93 189.307C1187.01 189.307 1187.93 189.526 1188.71 189.963C1189.48 190.395 1190.07 190.966 1190.49 191.676C1190.9 192.386 1191.11 193.153 1191.11 193.977C1191.11 194.96 1190.85 195.798 1190.34 196.491C1189.82 197.185 1189.13 197.665 1188.25 197.932V198.068C1189.35 198.25 1190.21 198.719 1190.83 199.474C1191.45 200.224 1191.76 201.153 1191.76 202.261C1191.76 203.21 1191.5 204.062 1190.98 204.818C1190.47 205.568 1189.77 206.159 1188.89 206.591C1188 207.023 1186.99 207.239 1185.86 207.239ZM1194.84 203.42V201.682L1202.51 189.545H1203.77V192.239H1202.91L1197.12 201.409V201.545H1207.45V203.42H1194.84ZM1203.05 207V202.892V202.082V189.545H1205.06V207H1203.05ZM1216.54 189.545V207H1214.43V191.761H1214.33L1210.07 194.591V192.443L1214.43 189.545H1216.54Z" fill="black"/>
<path d="M954.568 169.545V179H953.423V170.746H953.368L951.06 172.278V171.115L953.423 169.545H954.568ZM960.482 179.129C959.873 179.129 959.329 179.025 958.852 178.815C958.378 178.606 958.001 178.315 957.721 177.943C957.444 177.567 957.293 177.132 957.269 176.636H958.432C958.457 176.941 958.561 177.204 958.746 177.426C958.931 177.644 959.172 177.814 959.471 177.934C959.769 178.054 960.1 178.114 960.463 178.114C960.87 178.114 961.23 178.043 961.544 177.901C961.858 177.76 962.104 177.563 962.282 177.31C962.461 177.058 962.55 176.766 962.55 176.433C962.55 176.085 962.464 175.779 962.292 175.515C962.119 175.247 961.867 175.038 961.534 174.887C961.202 174.736 960.796 174.661 960.316 174.661H959.559V173.645H960.316C960.691 173.645 961.02 173.577 961.304 173.442C961.59 173.306 961.813 173.116 961.973 172.869C962.136 172.623 962.218 172.334 962.218 172.001C962.218 171.681 962.147 171.403 962.005 171.166C961.864 170.929 961.664 170.744 961.405 170.612C961.15 170.48 960.848 170.413 960.5 170.413C960.174 170.413 959.866 170.473 959.577 170.593C959.291 170.71 959.057 170.881 958.875 171.106C958.694 171.327 958.595 171.595 958.58 171.909H957.472C957.49 171.414 957.64 170.98 957.92 170.607C958.2 170.232 958.566 169.939 959.018 169.73C959.474 169.521 959.974 169.416 960.519 169.416C961.104 169.416 961.605 169.535 962.024 169.772C962.442 170.006 962.764 170.315 962.989 170.7C963.213 171.084 963.326 171.5 963.326 171.946C963.326 172.478 963.186 172.932 962.906 173.308C962.629 173.683 962.252 173.943 961.775 174.088V174.162C962.372 174.26 962.838 174.514 963.173 174.924C963.509 175.33 963.676 175.833 963.676 176.433C963.676 176.947 963.536 177.409 963.256 177.818C962.979 178.224 962.601 178.545 962.121 178.778C961.641 179.012 961.094 179.129 960.482 179.129ZM965.565 179V178.169L968.685 174.753C969.052 174.353 969.353 174.005 969.59 173.71C969.827 173.411 970.003 173.131 970.116 172.869C970.233 172.605 970.292 172.328 970.292 172.038C970.292 171.706 970.212 171.418 970.052 171.175C969.895 170.932 969.679 170.744 969.406 170.612C969.132 170.48 968.824 170.413 968.482 170.413C968.119 170.413 967.802 170.489 967.531 170.64C967.263 170.787 967.056 170.995 966.908 171.263C966.763 171.531 966.691 171.844 966.691 172.205H965.602C965.602 171.651 965.729 171.164 965.985 170.746C966.24 170.327 966.588 170.001 967.028 169.767C967.471 169.533 967.968 169.416 968.519 169.416C969.073 169.416 969.564 169.533 969.992 169.767C970.42 170.001 970.755 170.316 970.998 170.713C971.241 171.11 971.363 171.552 971.363 172.038C971.363 172.386 971.3 172.726 971.174 173.059C971.051 173.388 970.835 173.756 970.527 174.162C970.223 174.565 969.799 175.058 969.258 175.639L967.134 177.911V177.984H971.529V179H965.565ZM976.63 179.129C976.021 179.129 975.478 179.025 975.001 178.815C974.527 178.606 974.15 178.315 973.87 177.943C973.593 177.567 973.442 177.132 973.417 176.636H974.581C974.605 176.941 974.71 177.204 974.895 177.426C975.079 177.644 975.321 177.814 975.619 177.934C975.918 178.054 976.249 178.114 976.612 178.114C977.018 178.114 977.378 178.043 977.692 177.901C978.006 177.76 978.252 177.563 978.431 177.31C978.609 177.058 978.699 176.766 978.699 176.433C978.699 176.085 978.612 175.779 978.44 175.515C978.268 175.247 978.015 175.038 977.683 174.887C977.35 174.736 976.944 174.661 976.464 174.661H975.707V173.645H976.464C976.84 173.645 977.169 173.577 977.452 173.442C977.738 173.306 977.961 173.116 978.121 172.869C978.285 172.623 978.366 172.334 978.366 172.001C978.366 171.681 978.295 171.403 978.154 171.166C978.012 170.929 977.812 170.744 977.554 170.612C977.298 170.48 976.997 170.413 976.649 170.413C976.323 170.413 976.015 170.473 975.725 170.593C975.439 170.71 975.205 170.881 975.024 171.106C974.842 171.327 974.744 171.595 974.728 171.909H973.62C973.639 171.414 973.788 170.98 974.068 170.607C974.348 170.232 974.714 169.939 975.167 169.73C975.622 169.521 976.123 169.416 976.667 169.416C977.252 169.416 977.754 169.535 978.172 169.772C978.591 170.006 978.912 170.315 979.137 170.7C979.362 171.084 979.474 171.5 979.474 171.946C979.474 172.478 979.334 172.932 979.054 173.308C978.777 173.683 978.4 173.943 977.923 174.088V174.162C978.52 174.26 978.986 174.514 979.322 174.924C979.657 175.33 979.825 175.833 979.825 176.433C979.825 176.947 979.685 177.409 979.405 177.818C979.128 178.224 978.749 178.545 978.269 178.778C977.789 179.012 977.243 179.129 976.63 179.129ZM951.707 185.822H954.177V186.615H951.707V185.822ZM951.98 192.608H957.193V193.401H951.98V192.608ZM951.954 194.701H957.349V195.533H951.954V194.701ZM951.265 184.236H952.149V189.046H951.265V184.236ZM950.42 188.903C950.914 188.808 951.503 188.682 952.188 188.526C952.881 188.37 953.583 188.21 954.294 188.045L954.372 188.799C953.731 188.964 953.085 189.128 952.435 189.293C951.794 189.458 951.209 189.605 950.68 189.735L950.42 188.903ZM954.736 184.236H955.633V188.305C955.633 188.47 955.655 188.578 955.698 188.63C955.75 188.673 955.867 188.695 956.049 188.695C956.101 188.695 956.183 188.695 956.296 188.695C956.409 188.695 956.534 188.695 956.673 188.695C956.812 188.695 956.937 188.695 957.05 188.695C957.171 188.695 957.262 188.695 957.323 188.695C957.436 188.695 957.518 188.669 957.57 188.617C957.622 188.556 957.657 188.435 957.674 188.253C957.7 188.071 957.717 187.807 957.726 187.46C957.83 187.538 957.96 187.612 958.116 187.681C958.272 187.742 958.415 187.785 958.545 187.811C958.519 188.262 958.467 188.613 958.389 188.864C958.311 189.115 958.194 189.289 958.038 189.384C957.891 189.479 957.683 189.527 957.414 189.527C957.371 189.527 957.28 189.527 957.141 189.527C957.002 189.527 956.846 189.527 956.673 189.527C956.508 189.527 956.357 189.527 956.218 189.527C956.088 189.527 955.997 189.527 955.945 189.527C955.624 189.527 955.373 189.492 955.191 189.423C955.018 189.354 954.896 189.232 954.827 189.059C954.766 188.877 954.736 188.626 954.736 188.305V184.236ZM957.583 185.055L958.272 185.705C957.873 185.956 957.41 186.199 956.881 186.433C956.361 186.658 955.858 186.862 955.373 187.044C955.356 186.949 955.317 186.84 955.256 186.719C955.195 186.598 955.139 186.489 955.087 186.394C955.39 186.264 955.698 186.125 956.01 185.978C956.322 185.831 956.612 185.679 956.881 185.523C957.158 185.358 957.392 185.202 957.583 185.055ZM953.852 189.241L954.84 189.449C954.727 189.744 954.61 190.038 954.489 190.333C954.376 190.628 954.268 190.883 954.164 191.1L953.319 190.892C953.414 190.667 953.514 190.398 953.618 190.086C953.731 189.765 953.809 189.484 953.852 189.241ZM951.499 190.554H957.817V195.962H956.868V191.386H952.409V196.014H951.499V190.554ZM947.079 184.639H949.991V185.523H947.95V196.04H947.079V184.639ZM949.692 184.639H949.861L950.004 184.587L950.641 184.977C950.528 185.332 950.403 185.709 950.264 186.108C950.134 186.498 949.995 186.892 949.848 187.291C949.709 187.69 949.571 188.067 949.432 188.422C949.874 188.959 950.164 189.462 950.303 189.93C950.442 190.398 950.511 190.831 950.511 191.23C950.52 191.568 950.485 191.871 950.407 192.14C950.329 192.4 950.199 192.595 950.017 192.725C949.939 192.786 949.844 192.833 949.731 192.868C949.627 192.903 949.51 192.933 949.38 192.959C949.259 192.968 949.124 192.976 948.977 192.985C948.838 192.985 948.7 192.981 948.561 192.972C948.552 192.851 948.526 192.712 948.483 192.556C948.448 192.391 948.396 192.244 948.327 192.114C948.466 192.123 948.591 192.131 948.704 192.14C948.817 192.14 948.916 192.136 949.003 192.127C949.176 192.127 949.311 192.092 949.406 192.023C949.493 191.954 949.553 191.837 949.588 191.672C949.631 191.499 949.653 191.317 949.653 191.126C949.644 190.771 949.571 190.376 949.432 189.943C949.293 189.51 949.007 189.037 948.574 188.526C948.678 188.231 948.782 187.919 948.886 187.59C948.999 187.261 949.103 186.931 949.198 186.602C949.302 186.273 949.393 185.965 949.471 185.679C949.558 185.384 949.631 185.124 949.692 184.899V184.639ZM965.11 188.292H970.453V189.267H965.11V188.292ZM959.663 194.441H971.35V195.416H959.663V194.441ZM964.551 184.275H965.578V194.961H964.551V184.275ZM979.059 190.372H980.021V196.066H979.059V190.372ZM974.938 187.759H984.272V188.578H974.938V187.759ZM976.914 186.602H977.824V189.917H981.191V186.602H982.14V190.71H976.914V186.602ZM975.64 191.75H983.037V192.608H976.589V195.611H975.64V191.75ZM982.595 191.75H983.557V194.506C983.557 194.749 983.527 194.939 983.466 195.078C983.405 195.217 983.28 195.321 983.089 195.39C982.907 195.459 982.66 195.498 982.348 195.507C982.045 195.524 981.655 195.533 981.178 195.533C981.161 195.403 981.126 195.26 981.074 195.104C981.022 194.948 980.966 194.809 980.905 194.688C981.252 194.697 981.559 194.701 981.828 194.701C982.097 194.701 982.279 194.697 982.374 194.688C982.461 194.688 982.517 194.675 982.543 194.649C982.578 194.623 982.595 194.571 982.595 194.493V191.75ZM978.383 184.08H979.384V185.861H978.383V184.08ZM974.054 185.393H984.376V186.277H974.054V185.393ZM973.573 185.393H974.509V189.15C974.509 189.653 974.492 190.203 974.457 190.801C974.431 191.399 974.37 192.01 974.275 192.634C974.188 193.258 974.058 193.865 973.885 194.454C973.72 195.043 973.495 195.585 973.209 196.079C973.157 196.027 973.079 195.962 972.975 195.884C972.88 195.815 972.78 195.745 972.676 195.676C972.581 195.615 972.49 195.572 972.403 195.546C972.672 195.078 972.884 194.575 973.04 194.038C973.196 193.492 973.313 192.933 973.391 192.361C973.469 191.789 973.517 191.23 973.534 190.684C973.56 190.129 973.573 189.618 973.573 189.15V185.393Z" fill="black"/>
<path d="M162.858 28.3636V72H157.574V33.9034H157.318L146.665 40.9773V35.608L157.574 28.3636H162.858ZM176.175 72V28.3636H202.339V33.0511H181.459V47.7955H200.379V52.483H181.459V72H176.175Z" fill="black"/>
<path d="M518.517 77V73.1648L532.92 57.3977C534.611 55.5511 536.003 53.946 537.097 52.5824C538.19 51.2045 539 49.9119 539.526 48.7045C540.065 47.483 540.335 46.2045 540.335 44.8693C540.335 43.3352 539.966 42.0071 539.227 40.8849C538.503 39.7628 537.509 38.8963 536.244 38.2855C534.98 37.6747 533.56 37.3693 531.983 37.3693C530.307 37.3693 528.844 37.7173 527.594 38.4134C526.358 39.0952 525.399 40.054 524.717 41.2898C524.05 42.5256 523.716 43.9744 523.716 45.6364H518.688C518.688 43.0795 519.277 40.8352 520.456 38.9034C521.635 36.9716 523.24 35.4659 525.271 34.3864C527.317 33.3068 529.611 32.767 532.153 32.767C534.71 32.767 536.976 33.3068 538.95 34.3864C540.925 35.4659 542.473 36.9219 543.595 38.7543C544.717 40.5866 545.278 42.625 545.278 44.8693C545.278 46.4744 544.987 48.044 544.405 49.5781C543.837 51.098 542.842 52.7955 541.422 54.6705C540.016 56.5312 538.062 58.804 535.562 61.4886L525.761 71.9716V72.3125H546.045V77H518.517ZM555.612 77V33.3636H581.777V38.0511H560.896V52.7955H579.817V57.483H560.896V77H555.612Z" fill="black"/>
<path d="M890.261 77.5966C887.449 77.5966 884.942 77.1136 882.74 76.1477C880.553 75.1818 878.813 73.8395 877.52 72.1207C876.241 70.3878 875.545 68.3778 875.432 66.0909H880.801C880.915 67.4972 881.398 68.7116 882.25 69.7344C883.102 70.7429 884.217 71.5241 885.595 72.0781C886.973 72.6321 888.5 72.9091 890.176 72.9091C892.051 72.9091 893.713 72.5824 895.162 71.929C896.611 71.2756 897.747 70.3665 898.571 69.2017C899.395 68.0369 899.807 66.6875 899.807 65.1534C899.807 63.5483 899.409 62.1349 898.614 60.9134C897.818 59.6776 896.653 58.7116 895.119 58.0156C893.585 57.3196 891.71 56.9716 889.494 56.9716H886V52.2841H889.494C891.227 52.2841 892.747 51.9716 894.054 51.3466C895.375 50.7216 896.405 49.8409 897.143 48.7045C897.896 47.5682 898.273 46.233 898.273 44.6989C898.273 43.2216 897.946 41.9361 897.293 40.8423C896.639 39.7486 895.716 38.8963 894.523 38.2855C893.344 37.6747 891.952 37.3693 890.347 37.3693C888.841 37.3693 887.42 37.6463 886.085 38.2003C884.764 38.7401 883.685 39.5284 882.847 40.5653C882.009 41.5881 881.554 42.8239 881.483 44.2727H876.369C876.455 41.9858 877.143 39.983 878.436 38.2642C879.729 36.5312 881.419 35.1818 883.507 34.2159C885.609 33.25 887.918 32.767 890.432 32.767C893.131 32.767 895.446 33.3139 897.378 34.4077C899.31 35.4872 900.794 36.9148 901.831 38.6903C902.868 40.4659 903.386 42.3835 903.386 44.4432C903.386 46.9006 902.74 48.9957 901.447 50.7287C900.169 52.4616 898.429 53.6619 896.227 54.3295V54.6705C898.983 55.125 901.135 56.2969 902.683 58.1861C904.232 60.0611 905.006 62.3835 905.006 65.1534C905.006 67.5256 904.359 69.6562 903.067 71.5455C901.788 73.4205 900.041 74.8977 897.825 75.9773C895.609 77.0568 893.088 77.5966 890.261 77.5966ZM914.487 77V33.3636H940.652V38.0511H919.771V52.7955H938.692V57.483H919.771V77H914.487Z" fill="black"/>
<path d="M1154.49 68.0511V63.7045L1173.67 33.3636H1176.82V40.0966H1174.69L1160.2 63.0227V63.3636H1186.03V68.0511H1154.49ZM1175.03 77V66.7301V64.706V33.3636H1180.06V77H1175.03ZM1194.78 77V33.3636H1220.94V38.0511H1200.06V52.7955H1218.98V57.483H1200.06V77H1194.78Z" fill="black"/>
<path d="M1224 267V266M1175 156V131.5H1224V156M1175 156H1224M1175 156H1164.5V241.5H1175M1224 156V241.5M1224 241.5V266M1224 241.5H1211M1224 266H1211M1175 241.5V266H1200M1175 241.5H1193M1193 241.5H1196M1193 241.5V247.5M1211 254H1208M1196 254H1193V247.75V247.5M1196 254V241.5M1196 254H1199M1196 241.5H1199M1199 241.5V254M1199 241.5H1202M1199 254H1202M1202 254V241.5M1202 254H1205M1202 241.5H1205M1205 241.5H1205.5H1208M1205 241.5V254M1205 254H1206M1208 254V241.5M1208 254H1206M1208 254V266M1208 241.5H1211M1211 241.5V266M1211 266H1208.5H1208M1200 266H1205M1200 266L1205 256M1206 254L1205 256M1205 266H1206H1208M1205 266V256M1193 247.5H1216V260H1203.5" stroke="black" stroke-width="2"/>
<path d="M19 194V120.5H92.5V193.75M19 194V267H92.5V193.75M19 194L92.5 193.75" stroke="black" stroke-width="2"/>
<path d="M92.5 120.5H148V87H173V120L299 120.439M316.5 120.5L299 120.439M299 120.439V106H348.5V120H330.5M326 120H330.5M330.5 120V148H339" stroke="black" stroke-width="2"/>
<path d="M159.787 161L157.4 152.273H158.474L160.298 159.381H160.383L162.241 152.273H163.434L165.292 159.381H165.377L167.201 152.273H168.275L165.889 161H164.798L162.872 154.045H162.804L160.877 161H159.787ZM176.205 155H175.148C175.085 154.696 174.976 154.429 174.82 154.199C174.666 153.969 174.479 153.776 174.257 153.619C174.038 153.46 173.795 153.341 173.528 153.261C173.261 153.182 172.983 153.142 172.693 153.142C172.165 153.142 171.686 153.276 171.257 153.543C170.831 153.81 170.491 154.203 170.239 154.723C169.989 155.243 169.864 155.881 169.864 156.636C169.864 157.392 169.989 158.03 170.239 158.55C170.491 159.07 170.831 159.463 171.257 159.73C171.686 159.997 172.165 160.131 172.693 160.131C172.983 160.131 173.261 160.091 173.528 160.011C173.795 159.932 174.038 159.814 174.257 159.658C174.479 159.499 174.666 159.304 174.82 159.074C174.976 158.841 175.085 158.574 175.148 158.273H176.205C176.125 158.719 175.98 159.118 175.77 159.47C175.56 159.822 175.298 160.122 174.986 160.369C174.673 160.614 174.322 160.8 173.933 160.928C173.547 161.055 173.134 161.119 172.693 161.119C171.949 161.119 171.287 160.938 170.707 160.574C170.128 160.21 169.672 159.693 169.339 159.023C169.007 158.352 168.841 157.557 168.841 156.636C168.841 155.716 169.007 154.92 169.339 154.25C169.672 153.58 170.128 153.062 170.707 152.699C171.287 152.335 171.949 152.153 172.693 152.153C173.134 152.153 173.547 152.217 173.933 152.345C174.322 152.473 174.673 152.661 174.986 152.908C175.298 153.152 175.56 153.45 175.77 153.803C175.98 154.152 176.125 154.551 176.205 155Z" fill="black"/>
<path d="M535.787 166L533.4 157.273H534.474L536.298 164.381H536.383L538.241 157.273H539.434L541.292 164.381H541.377L543.201 157.273H544.275L541.889 166H540.798L538.872 159.045H538.804L536.877 166H535.787ZM552.205 160H551.148C551.085 159.696 550.976 159.429 550.82 159.199C550.666 158.969 550.479 158.776 550.257 158.619C550.038 158.46 549.795 158.341 549.528 158.261C549.261 158.182 548.983 158.142 548.693 158.142C548.165 158.142 547.686 158.276 547.257 158.543C546.831 158.81 546.491 159.203 546.239 159.723C545.989 160.243 545.864 160.881 545.864 161.636C545.864 162.392 545.989 163.03 546.239 163.55C546.491 164.07 546.831 164.463 547.257 164.73C547.686 164.997 548.165 165.131 548.693 165.131C548.983 165.131 549.261 165.091 549.528 165.011C549.795 164.932 550.038 164.814 550.257 164.658C550.479 164.499 550.666 164.304 550.82 164.074C550.976 163.841 551.085 163.574 551.148 163.273H552.205C552.125 163.719 551.98 164.118 551.77 164.47C551.56 164.822 551.298 165.122 550.986 165.369C550.673 165.614 550.322 165.8 549.933 165.928C549.547 166.055 549.134 166.119 548.693 166.119C547.949 166.119 547.287 165.938 546.707 165.574C546.128 165.21 545.672 164.693 545.339 164.023C545.007 163.352 544.841 162.557 544.841 161.636C544.841 160.716 545.007 159.92 545.339 159.25C545.672 158.58 546.128 158.062 546.707 157.699C547.287 157.335 547.949 157.153 548.693 157.153C549.134 157.153 549.547 157.217 549.933 157.345C550.322 157.473 550.673 157.661 550.986 157.908C551.298 158.152 551.56 158.45 551.77 158.803C551.98 159.152 552.125 159.551 552.205 160Z" fill="black"/>
<path d="M536.787 206L534.4 197.273H535.474L537.298 204.381H537.383L539.241 197.273H540.434L542.292 204.381H542.377L544.201 197.273H545.275L542.889 206H541.798L539.872 199.045H539.804L537.877 206H536.787ZM553.205 200H552.148C552.085 199.696 551.976 199.429 551.82 199.199C551.666 198.969 551.479 198.776 551.257 198.619C551.038 198.46 550.795 198.341 550.528 198.261C550.261 198.182 549.983 198.142 549.693 198.142C549.165 198.142 548.686 198.276 548.257 198.543C547.831 198.81 547.491 199.203 547.239 199.723C546.989 200.243 546.864 200.881 546.864 201.636C546.864 202.392 546.989 203.03 547.239 203.55C547.491 204.07 547.831 204.463 548.257 204.73C548.686 204.997 549.165 205.131 549.693 205.131C549.983 205.131 550.261 205.091 550.528 205.011C550.795 204.932 551.038 204.814 551.257 204.658C551.479 204.499 551.666 204.304 551.82 204.074C551.976 203.841 552.085 203.574 552.148 203.273H553.205C553.125 203.719 552.98 204.118 552.77 204.47C552.56 204.822 552.298 205.122 551.986 205.369C551.673 205.614 551.322 205.8 550.933 205.928C550.547 206.055 550.134 206.119 549.693 206.119C548.949 206.119 548.287 205.938 547.707 205.574C547.128 205.21 546.672 204.693 546.339 204.023C546.007 203.352 545.841 202.557 545.841 201.636C545.841 200.716 546.007 199.92 546.339 199.25C546.672 198.58 547.128 198.062 547.707 197.699C548.287 197.335 548.949 197.153 549.693 197.153C550.134 197.153 550.547 197.217 550.933 197.345C551.322 197.473 551.673 197.661 551.986 197.908C552.298 198.152 552.56 198.45 552.77 198.803C552.98 199.152 553.125 199.551 553.205 200Z" fill="black"/>
<path d="M159.787 202L157.4 193.273H158.474L160.298 200.381H160.383L162.241 193.273H163.434L165.292 200.381H165.377L167.201 193.273H168.275L165.889 202H164.798L162.872 195.045H162.804L160.877 202H159.787ZM176.205 196H175.148C175.085 195.696 174.976 195.429 174.82 195.199C174.666 194.969 174.479 194.776 174.257 194.619C174.038 194.46 173.795 194.341 173.528 194.261C173.261 194.182 172.983 194.142 172.693 194.142C172.165 194.142 171.686 194.276 171.257 194.543C170.831 194.81 170.491 195.203 170.239 195.723C169.989 196.243 169.864 196.881 169.864 197.636C169.864 198.392 169.989 199.03 170.239 199.55C170.491 200.07 170.831 200.463 171.257 200.73C171.686 200.997 172.165 201.131 172.693 201.131C172.983 201.131 173.261 201.091 173.528 201.011C173.795 200.932 174.038 200.814 174.257 200.658C174.479 200.499 174.666 200.304 174.82 200.074C174.976 199.841 175.085 199.574 175.148 199.273H176.205C176.125 199.719 175.98 200.118 175.77 200.47C175.56 200.822 175.298 201.122 174.986 201.369C174.673 201.614 174.322 201.8 173.933 201.928C173.547 202.055 173.134 202.119 172.693 202.119C171.949 202.119 171.287 201.938 170.707 201.574C170.128 201.21 169.672 200.693 169.339 200.023C169.007 199.352 168.841 198.557 168.841 197.636C168.841 196.716 169.007 195.92 169.339 195.25C169.672 194.58 170.128 194.062 170.707 193.699C171.287 193.335 171.949 193.153 172.693 193.153C173.134 193.153 173.547 193.217 173.933 193.345C174.322 193.473 174.673 193.661 174.986 193.908C175.298 194.152 175.56 194.45 175.77 194.803C175.98 195.152 176.125 195.551 176.205 196Z" fill="black"/>
<path d="M156.191 180L154.6 174.182H155.316L156.532 178.92H156.589L157.827 174.182H158.623L159.862 178.92H159.918L161.134 174.182H161.85L160.259 180H159.532L158.248 175.364H158.202L156.918 180H156.191ZM167.136 176H166.432C166.39 175.797 166.317 175.619 166.213 175.466C166.111 175.312 165.986 175.184 165.838 175.08C165.692 174.973 165.53 174.894 165.352 174.841C165.174 174.788 164.989 174.761 164.795 174.761C164.443 174.761 164.124 174.85 163.838 175.028C163.554 175.206 163.328 175.469 163.159 175.815C162.992 176.162 162.909 176.587 162.909 177.091C162.909 177.595 162.992 178.02 163.159 178.366C163.328 178.713 163.554 178.975 163.838 179.153C164.124 179.331 164.443 179.42 164.795 179.42C164.989 179.42 165.174 179.394 165.352 179.341C165.53 179.288 165.692 179.209 165.838 179.105C165.986 178.999 166.111 178.869 166.213 178.716C166.317 178.561 166.39 178.383 166.432 178.182H167.136C167.083 178.479 166.987 178.745 166.847 178.98C166.706 179.215 166.532 179.415 166.324 179.58C166.116 179.742 165.882 179.866 165.622 179.952C165.365 180.037 165.089 180.08 164.795 180.08C164.299 180.08 163.858 179.958 163.472 179.716C163.085 179.473 162.781 179.129 162.56 178.682C162.338 178.235 162.227 177.705 162.227 177.091C162.227 176.477 162.338 175.947 162.56 175.5C162.781 175.053 163.085 174.708 163.472 174.466C163.858 174.223 164.299 174.102 164.795 174.102C165.089 174.102 165.365 174.145 165.622 174.23C165.882 174.315 166.116 174.44 166.324 174.605C166.532 174.768 166.706 174.967 166.847 175.202C166.987 175.435 167.083 175.701 167.136 176Z" fill="black"/>
<path d="M214 120.5V242.5H330.5V215H338.5" stroke="black" stroke-width="2"/>
<path d="M201 242H213.5" stroke="black" stroke-width="2"/>
<path d="M195 242H184.5H183.5V230H152.5V236.5V237H135V230V242M135 242H120.5H120H135ZM135 242.5V255H183.5V242.5" stroke="black" stroke-width="2"/>
<path d="M135 242H152.5M152.5 242V239.5M152.5 242V237V239.5M152.5 242H158M152.5 239.5H152H135.5M162 234.5V255H165V230H165.5H168V231V255H171V254V231V242H158M162 234.5L158 242M162 234.5L164.5 230" stroke="black" stroke-width="2"/>
<path d="M159 255V242H156V255H153V249M153 242.5V248.75V249M153 249H176V236H162" stroke="black" stroke-width="2"/>
<path d="M92.5 242H108" stroke="black" stroke-width="2"/>
<path d="M92.5 145H107.5" stroke="black" stroke-width="2"/>
<path d="M120 145H135M135 145V158M135 145H153M153 145V147.5M153 145H178M178 145V158H184M178 145H184M184 158V145M184 158V170M184 145H214M184 214V214.5V215V214ZM184 214H167M184 214V185M184 214H214M153 204V208M153 208V214H167M153 208H167V213V214M153 198.5V199V185M153 154V170M153 170V170.5V185M153 170H168.5M184 170V185M184 170H168.5M184 185H168.5M153 185H168.5M168.5 185V170" stroke="black" stroke-width="2"/>
<path d="M135 120.5V124M135 124V127H93H92.5V124H135ZM148 120.5H160.5V118M148 106.5V106M148 106V103H173V102.5V100H148H160.5V109M148 106H173V109H160.5M160.5 109H148V112V116L154.5 112.36M160.5 109V112M160.5 109L154.5 112.36M160.5 112H173V115H160.5M160.5 112V115M160.5 115V117.75V118M160.5 118H166.5M173 118H166.5M166.5 118V95H155M154.5 95H154M154.5 95V112.36M154.5 95H155M153.5 95H155" stroke="black" stroke-width="2"/>
<path d="M242 242.5V256.5H245M257 242.5H260.5L254.5 256.5H254M257 242.5V250.301M257 242.5H254V256.5M254 256.5H251M251 256.5V242.5H248V256.5M251 256.5H248M248 256.5H245M245 256.5V242.5" stroke="black" stroke-width="2"/>
<path d="M242 249.5H257" stroke="black" stroke-width="2"/>
<path d="M327 119V106V120V120.5H323.5H323H330V106H333V120H336V106H339V113M339 120V113M339 113H325.5" stroke="black" stroke-width="2"/>
<path d="M343 182C343 173.688 340.333 155.203 339 147L343 182Z" stroke="black" stroke-width="2"/>
<path d="M343 182C343 190.075 340.333 208.031 339 216L343 182Z" stroke="black" stroke-width="2"/>
<path d="M469.5 271.5V149V124H396V271.5H469.5ZM469.5 271.5H708V219.5V219M708 219V218.5V218V219ZM717 219H702M693 219H702M702 219V151M702 150V151M702 151H708M717 151H708M693 151H708M708 151V124M708 123V124M708 124H550M550 124H549.5H549H550ZM550 124V122M550 90V91M550 91H525V104M550 91V104M525 136V124M525 124H538V122M525 124V113M538 103V116M538 122H550M538 122V119M550 122V119M550 119H538M550 119V116M538 119V116M538 116H550M550 116V113M550 113H525M550 113V110M525 113V110M525 110H550M525 110V107M550 110V107M550 107H525M550 107V104M525 107V104M525 104H550" stroke="black" stroke-width="2"/>
<path d="M525 119L538 113" stroke="black" stroke-width="2"/>
<path d="M525 135H469" stroke="black" stroke-width="2"/>
<path d="M469.5 148.5H501" stroke="black" stroke-width="2"/>
<path d="M508 148.5H561.5V123V217.5M561.5 223V217.5M561.5 217.5H543.5M529 217.5H530M530 217.5V212.75M530 217.5H543.5M530 208V212.75M530 212.75H543.5V217.5" stroke="black" stroke-width="2"/>
<path d="M530 202V188.5M530 157V174.5M530 174.5V188.5M530 174.5H545.75M562 174.5H561.5M561.5 174.5V188.5H545.75M561.5 174.5H545.75M530 188.5H545.75M545.75 188.5V174.5" stroke="black" stroke-width="2"/>
<path d="M561.5 162H556M555 162H556M556 162V148.5H530M530 148.5V152M530 148.5H512.5V161" stroke="black" stroke-width="2"/>
<path d="M469.5 197.5H396.5V204.5H400.5V190.5H396.5" stroke="black" stroke-width="2"/>
<path d="M469.5 246.5H498" stroke="black" stroke-width="2"/>
<path d="M505 246.5H512.5" stroke="black" stroke-width="2"/>
<path d="M512.5 234V258.5H562V234M562 234V229.5V228.5V234Z" stroke="black" stroke-width="2"/>
<path d="M529 234H534M562 234H549M549 234H548.5H546M549 234V246.5M546 234V258.5H549V252.5M546 234H543M543 234V258.5H540V234M543 234H540M540 234H537M537 234V258.5M537 234H534M537 258.716V258.5M537 258.5H534V234M530.5 258.5V246.5H549M549 246.5V252.5M549 252.5H531H554V240M554 239V240M554 240H533" stroke="black" stroke-width="2"/>
<path d="M562 246.5H686M708.5 246.5H686M686 246.5V235.5L694 219.5" stroke="black" stroke-width="2"/>
<path d="M694 151L686 134.5V124.5" stroke="black" stroke-width="2"/>
<path d="M667 271V258.5H657M648 246.5H613V258.5H643.5M648 246.5L643.5 258.5M648 246.5V258.5M643.5 258.5H648M648 258.5H651M651 246.5V258.5M651 258.5H654M654 258.5V246.5H657V258.5M654 258.5H657M657 258.5V271M657 271.5H660V246.5H663V271.5" stroke="black" stroke-width="2"/>
<path d="M544 122V99H532M531 99H532M532 99V116" stroke="black" stroke-width="2"/>
<path d="M720 186C720 193.6 718 211.833 717 220" stroke="black" stroke-width="2"/>
<path d="M720 186C720 178.176 717.333 159.407 716 151" stroke="black" stroke-width="2"/>
<path d="M1092 182C1092 189.6 1090 207.833 1089 216" stroke="black" stroke-width="2"/>
<path d="M1092 182C1092 174.176 1089.33 155.407 1088 147" stroke="black" stroke-width="2"/>
<path d="M768.5 120.5V267.5H1081V215H1080H1089" stroke="black" stroke-width="2"/>
<path d="M1081 243H933.5" stroke="black" stroke-width="2"/>
<path d="M933.5 243.5V255H885M885 255H884.5H884H885ZM885 255V243H842" stroke="black" stroke-width="2"/>
<path d="M842 267.5V145H860H769" stroke="black" stroke-width="2"/>
<path d="M768.5 120.5H898V87.5H922.5M923 87.5H922.5M922.5 87.5V120.31V120.5H910.5V100" stroke="black" stroke-width="2"/>
<path d="M923 120.5H1080.5V147.5M1080.5 148V147.5M1080.5 147.5H1089" stroke="black" stroke-width="2"/>
<path d="M1046.5 243V120.5" stroke="black" stroke-width="2"/>
<path d="M985.5 242.5V120.5L1046.5 242.5" stroke="black" stroke-width="2"/>
<path d="M985.5 242.5L1046.5 120.5" stroke="black" stroke-width="2"/>
<path d="M938 243V238" stroke="black" stroke-width="2"/>
<path d="M938 231.5V226" stroke="black" stroke-width="2"/>
<path d="M943.5 220L938 226.5" stroke="black" stroke-width="2"/>
<path d="M921 226.5H934M938.5 226.5H934M934 226.5V145H938M938 145H938.5H939H938ZM938 145V135M934 120.5V123H938V135M938 135L943.5 141V220.5L938.5 226.341" stroke="black" stroke-width="2"/>
<path d="M933.5 242V244.5" stroke="black" stroke-width="2"/>
<path d="M871 145H903M934 145H921M921 145H918M921 145V138.75V138.5M918 145V120.5H921V132.5M918 145H915M915 145V123M915 145H912M912 145V130M912 145H909M909 145V132.5M909 145H906M906 145V132.5M906 145H903M903 145V138.5M921 132.5V138.5M921 132.5H910.5M921 138.5H926M926 138.5H903M926 138.5V126.5H914M903 138.5V132.5H902H910.5M914 126.5L910.5 132.5M914 126.5L917.5 120.5" stroke="black" stroke-width="2"/>
<path d="M842 145V120.5" stroke="black" stroke-width="2"/>
<path d="M885 164.5H842L885 223M885 164.5V145V223M885 164.5L842 223H885M885 231V223" stroke="black" stroke-width="2"/>
<path d="M885 226.5H902.5V230.5H921.5V226.5V225.5" stroke="black" stroke-width="2"/>
<path d="M903 255V243H921V255V230.5H918V255H915V230.5H912V255H909V230.5H906V254.772" stroke="black" stroke-width="2"/>
<path d="M903 249H926V236H905" stroke="black" stroke-width="2"/>
<path d="M898 118H904.5M910.5 115V118H904.5M910.5 115H898V112H910.5M910.5 115V112M910.5 115L916.5 112M910.5 112V109M910.5 109H898V106H910.5M910.5 109H922.5M910.5 106V103M910.5 106H922.5V109M910.5 103H898V100H922.5V103H910.5ZM922.5 109L916.5 112M916.5 112V95.5H904.5V118" stroke="black" stroke-width="2"/>
<path d="M1193 131.5V143.5H1196M1206.5 143.5L1200.5 156H1211V131.5V143.5H1208M1206.5 143.5H1208M1206.5 143.5H1205M1208 143.5V131.5H1205V143.5M1205 143.5H1202M1202 143.5V131.5H1199V143.5M1202 143.5H1199M1199 143.5H1196M1196 143.5V131.5" stroke="black" stroke-width="2"/>
<path d="M1208 156V143" stroke="black" stroke-width="2"/>
<path d="M1205 155.5V150M1205 147V150M1205 150H1215.5H1216V137.5H1193" stroke="black" stroke-width="2"/>
</svg>
