<svg width="980" height="734" viewBox="0 0 980 734" fill="none" xmlns="http://www.w3.org/2000/svg">
<rect width="980" height="734" fill="#1E1E1E"/>
<rect width="980" height="734" fill="white"/>
<rect width="980" height="734" fill="white"/>
<rect x="65" y="485" width="188" height="219" stroke="black" stroke-width="2"/>
<rect x="65" y="469" width="34" height="14" stroke="black" stroke-width="2"/>
<rect x="405" y="469" width="34" height="14" stroke="black" stroke-width="2"/>
<rect x="251" y="485" width="188" height="219" stroke="black" stroke-width="2"/>
<line x1="64" y1="120" x2="442" y2="120" stroke="black" stroke-width="2"/>
<line x1="65" y1="121" x2="65" y2="354" stroke="black" stroke-width="2"/>
<line x1="96" y1="411" x2="96" y2="470" stroke="black" stroke-width="2"/>
<line x1="198.01" y1="436" x2="95.0097" y2="437" stroke="black" stroke-width="2"/>
<line x1="197" y1="435" x2="197" y2="399" stroke="black" stroke-width="2"/>
<line x1="198" y1="406" x2="150" y2="406" stroke="black" stroke-width="2"/>
<line x1="177.028" y1="435.765" x2="184.028" y2="406.765" stroke="black" stroke-width="2"/>
<line x1="172" y1="355" x2="150" y2="355" stroke="black" stroke-width="2"/>
<line x1="171" y1="405" x2="171" y2="354" stroke="black" stroke-width="2"/>
<line x1="156" y1="436" x2="156" y2="405" stroke="black" stroke-width="2"/>
<line x1="160" y1="436" x2="160" y2="405" stroke="black" stroke-width="2"/>
<line x1="165" y1="436" x2="165" y2="405" stroke="black" stroke-width="2"/>
<line x1="169" y1="436" x2="169" y2="405" stroke="black" stroke-width="2"/>
<line x1="175" y1="436" x2="175" y2="405" stroke="black" stroke-width="2"/>
<line x1="192" y1="407" x2="192" y2="392" stroke="black" stroke-width="2"/>
<line x1="96" y1="385" x2="96" y2="354" stroke="black" stroke-width="2"/>
<line x1="102" y1="355" x2="64" y2="355" stroke="black" stroke-width="2"/>
<line x1="313" y1="407" x2="313" y2="392" stroke="black" stroke-width="2"/>
<line x1="165" y1="405" x2="165" y2="354" stroke="black" stroke-width="2"/>
<line x1="158" y1="405" x2="158" y2="354" stroke="black" stroke-width="2"/>
<line y1="-1" x2="48" y2="-1" transform="matrix(1 -8.74708e-09 -8.74708e-09 -1 307 405)" stroke="black" stroke-width="2"/>
<line y1="-1" x2="22" y2="-1" transform="matrix(1 -8.74708e-09 -8.74708e-09 -1 333 354)" stroke="black" stroke-width="2"/>
<line y1="-1" x2="31" y2="-1" transform="matrix(0 -1 -1 0 348 436)" stroke="black" stroke-width="2"/>
<line y1="-1" x2="31" y2="-1" transform="matrix(0 -1 -1 0 344 436)" stroke="black" stroke-width="2"/>
<line y1="-1" x2="31" y2="-1" transform="matrix(0 -1 -1 0 339 436)" stroke="black" stroke-width="2"/>
<line x1="307" y1="408" x2="198" y2="408" stroke="black" stroke-width="2"/>
<line x1="309" y1="412" x2="198" y2="412" stroke="black" stroke-width="2"/>
<line x1="309" y1="416" x2="198" y2="416" stroke="black" stroke-width="2"/>
<line x1="308" y1="403" x2="197" y2="403" stroke="black" stroke-width="2"/>
<line x1="314" y1="393" x2="193" y2="393" stroke="black" stroke-width="2"/>
<line x1="331.04" y1="436.279" x2="322.04" y2="405.279" stroke="black" stroke-width="2"/>
<line y1="-1" x2="31" y2="-1" transform="matrix(0 -1 -1 0 331 436)" stroke="black" stroke-width="2"/>
<line y1="-1" x2="31" y2="-1" transform="matrix(0 -1 -1 0 335 436)" stroke="black" stroke-width="2"/>
<line y1="-1" x2="51" y2="-1" transform="matrix(0 -1 -1 0 339 405)" stroke="black" stroke-width="2"/>
<line y1="-1" x2="51" y2="-1" transform="matrix(0 -1 -1 0 333 405)" stroke="black" stroke-width="2"/>
<line y1="-1" x2="51" y2="-1" transform="matrix(0 -1 -1 0 346 405)" stroke="black" stroke-width="2"/>
<line x1="158.989" y1="249" x2="65.9893" y2="248" stroke="black" stroke-width="2"/>
<line x1="158" y1="270" x2="158" y2="121" stroke="black" stroke-width="2"/>
<line x1="127" y1="354" x2="127" y2="247" stroke="black" stroke-width="2"/>
<line x1="101" y1="331" x2="101" y2="290" stroke="black" stroke-width="2"/>
<line x1="100.406" y1="307.914" x2="64.4061" y2="323.914" stroke="black" stroke-width="2"/>
<line x1="128" y1="308" x2="76" y2="308" stroke="black" stroke-width="2"/>
<line x1="128" y1="301" x2="76" y2="301" stroke="black" stroke-width="2"/>
<line x1="128" y1="296" x2="76" y2="296" stroke="black" stroke-width="2"/>
<line x1="128" y1="289" x2="76" y2="289" stroke="black" stroke-width="2"/>
<line x1="126" y1="319" x2="100" y2="319" stroke="black" stroke-width="2"/>
<line x1="126" y1="313" x2="100" y2="313" stroke="black" stroke-width="2"/>
<line x1="128" y1="324" x2="102" y2="324" stroke="black" stroke-width="2"/>
<line y1="-1" x2="41" y2="-1" transform="matrix(0 -1 -1 0 404 331)" stroke="black" stroke-width="2"/>
<line y1="-1" x2="39.3954" y2="-1" transform="matrix(0.913812 0.406138 0.406138 -0.913812 406 307)" stroke="black" stroke-width="2"/>
<line y1="-1" x2="52" y2="-1" transform="matrix(1 0 0 -1 378 307)" stroke="black" stroke-width="2"/>
<line y1="-1" x2="52" y2="-1" transform="matrix(1 0 0 -1 378 300)" stroke="black" stroke-width="2"/>
<line y1="-1" x2="52" y2="-1" transform="matrix(1 0 0 -1 378 295)" stroke="black" stroke-width="2"/>
<line y1="-1" x2="52" y2="-1" transform="matrix(1 0 0 -1 378 288)" stroke="black" stroke-width="2"/>
<line y1="-1" x2="26" y2="-1" transform="matrix(1 0 0 -1 380 318)" stroke="black" stroke-width="2"/>
<line y1="-1" x2="26" y2="-1" transform="matrix(1 0 0 -1 380 312)" stroke="black" stroke-width="2"/>
<line y1="-1" x2="26" y2="-1" transform="matrix(1 0 0 -1 378 323)" stroke="black" stroke-width="2"/>
<line x1="193" y1="270.068" x2="193" y2="210.932" stroke="black" stroke-width="2"/>
<line x1="221" y1="259" x2="221" y2="210" stroke="black" stroke-width="2"/>
<line x1="284" y1="259" x2="284" y2="211" stroke="black" stroke-width="2"/>
<line x1="348" y1="290" x2="348" y2="264" stroke="black" stroke-width="2"/>
<line x1="349" y1="291" x2="330" y2="291" stroke="black" stroke-width="2"/>
<line x1="158" y1="291" x2="158" y2="284" stroke="black" stroke-width="2"/>
<line x1="348" y1="247" x2="348" y2="211" stroke="black" stroke-width="2"/>
<line x1="378" y1="331" x2="378" y2="241" stroke="black" stroke-width="2"/>
<line x1="252" y1="211" x2="252" y2="121" stroke="black" stroke-width="2"/>
<line x1="378" y1="227" x2="378" y2="121" stroke="black" stroke-width="2"/>
<line x1="378.995" y1="212" x2="158.995" y2="211" stroke="black" stroke-width="2"/>
<line x1="308" y1="436" x2="308" y2="400" stroke="black" stroke-width="2"/>
<line x1="410" y1="437" x2="307" y2="437" stroke="black" stroke-width="2"/>
<line x1="411" y1="411" x2="411" y2="470" stroke="black" stroke-width="2"/>
<line x1="441" y1="354" x2="441" y2="121" stroke="black" stroke-width="2"/>
<path d="M252.5 275C296.516 275 332.205 311.174 332.985 356H330.985C330.205 312.233 295.366 277 252.5 277C209.634 277 174.795 312.233 174.015 356H172.015C172.795 311.174 208.484 275 252.5 275Z" fill="black"/>
<line y1="-1" x2="31" y2="-1" transform="matrix(0 -1 -1 0 409 385)" stroke="black" stroke-width="2"/>
<line y1="-1" x2="38" y2="-1" transform="matrix(1 0 0 -1 404 354)" stroke="black" stroke-width="2"/>
<line x1="214" y1="484" x2="214" y2="468" stroke="black" stroke-width="2"/>
<line x1="156" y1="467" x2="215" y2="467" stroke="black" stroke-width="2"/>
<line x1="156.569" y1="466.822" x2="130.569" y2="484.822" stroke="black" stroke-width="2"/>
<line y1="-1" x2="16" y2="-1" transform="matrix(0 -1 -1 0 291 485)" stroke="black" stroke-width="2"/>
<line y1="-1" x2="59" y2="-1" transform="matrix(-1 0 0 1 350 469)" stroke="black" stroke-width="2"/>
<line y1="-1" x2="31.6228" y2="-1" transform="matrix(0.822192 0.56921 0.56921 -0.822192 350 467)" stroke="black" stroke-width="2"/>
<line x1="176" y1="290" x2="157" y2="290" stroke="black" stroke-width="2"/>
<path d="M222 258.77C203.234 263.814 187.175 275.435 176.461 291H174.047C185.117 274.334 202.094 261.913 222 256.701V258.77Z" fill="black"/>
<path d="M285 259.068C303.766 264.113 319.825 275.734 330.539 291.299H332.953C321.883 274.633 304.906 262.212 285 257V259.068Z" fill="black"/>
<path d="M80.2386 169.909V199H76.7159V173.602H76.5455L69.4432 178.318V174.739L76.7159 169.909H80.2386ZM98.8324 169.909V199H95.3097V173.602H95.1392L88.0369 178.318V174.739L95.3097 169.909H98.8324ZM116.688 199.398C114.547 199.398 112.724 198.815 111.219 197.651C109.713 196.476 108.563 194.777 107.767 192.551C106.972 190.316 106.574 187.617 106.574 184.455C106.574 181.311 106.972 178.626 107.767 176.401C108.572 174.166 109.727 172.461 111.233 171.287C112.748 170.103 114.566 169.511 116.688 169.511C118.809 169.511 120.622 170.103 122.128 171.287C123.643 172.461 124.798 174.166 125.594 176.401C126.399 178.626 126.801 181.311 126.801 184.455C126.801 187.617 126.403 190.316 125.608 192.551C124.812 194.777 123.662 196.476 122.156 197.651C120.651 198.815 118.828 199.398 116.688 199.398ZM116.688 196.273C118.809 196.273 120.456 195.25 121.631 193.205C122.805 191.159 123.392 188.242 123.392 184.455C123.392 181.936 123.122 179.791 122.582 178.02C122.052 176.249 121.285 174.9 120.281 173.972C119.287 173.044 118.089 172.58 116.688 172.58C114.585 172.58 112.942 173.616 111.759 175.69C110.575 177.755 109.983 180.676 109.983 184.455C109.983 186.973 110.248 189.114 110.778 190.875C111.309 192.636 112.071 193.976 113.065 194.895C114.069 195.813 115.277 196.273 116.688 196.273ZM142.028 199.398C140.153 199.398 138.482 199.076 137.014 198.432C135.556 197.788 134.396 196.893 133.534 195.747C132.682 194.592 132.218 193.252 132.142 191.727H135.722C135.797 192.665 136.119 193.474 136.688 194.156C137.256 194.829 137.999 195.349 138.918 195.719C139.836 196.088 140.854 196.273 141.972 196.273C143.222 196.273 144.33 196.055 145.295 195.619C146.261 195.184 147.019 194.578 147.568 193.801C148.117 193.025 148.392 192.125 148.392 191.102C148.392 190.032 148.127 189.09 147.597 188.276C147.066 187.452 146.29 186.808 145.267 186.344C144.244 185.88 142.994 185.648 141.517 185.648H139.188V182.523H141.517C142.672 182.523 143.686 182.314 144.557 181.898C145.438 181.481 146.124 180.894 146.616 180.136C147.118 179.379 147.369 178.489 147.369 177.466C147.369 176.481 147.152 175.624 146.716 174.895C146.28 174.166 145.665 173.598 144.869 173.19C144.083 172.783 143.155 172.58 142.085 172.58C141.081 172.58 140.134 172.764 139.244 173.134C138.364 173.493 137.644 174.019 137.085 174.71C136.527 175.392 136.223 176.216 136.176 177.182H132.767C132.824 175.657 133.283 174.322 134.145 173.176C135.007 172.021 136.134 171.121 137.526 170.477C138.927 169.833 140.466 169.511 142.142 169.511C143.941 169.511 145.485 169.876 146.773 170.605C148.061 171.325 149.05 172.277 149.741 173.46C150.433 174.644 150.778 175.922 150.778 177.295C150.778 178.934 150.348 180.33 149.486 181.486C148.634 182.641 147.473 183.441 146.006 183.886V184.114C147.843 184.417 149.277 185.198 150.31 186.457C151.342 187.707 151.858 189.256 151.858 191.102C151.858 192.684 151.427 194.104 150.565 195.364C149.713 196.614 148.548 197.598 147.071 198.318C145.594 199.038 143.913 199.398 142.028 199.398Z" fill="black"/>
<path d="M240.858 52.3636V96H235.574V57.9034H235.318L224.665 64.9773V59.608L235.574 52.3636H240.858ZM254.175 96V52.3636H280.339V57.0511H259.459V71.7955H278.379V76.483H259.459V96H254.175Z" fill="black"/>
<path d="M682.517 96V92.1648L696.92 76.3977C698.611 74.5511 700.003 72.946 701.097 71.5824C702.19 70.2045 703 68.9119 703.526 67.7045C704.065 66.483 704.335 65.2045 704.335 63.8693C704.335 62.3352 703.966 61.0071 703.227 59.8849C702.503 58.7628 701.509 57.8963 700.244 57.2855C698.98 56.6747 697.56 56.3693 695.983 56.3693C694.307 56.3693 692.844 56.7173 691.594 57.4134C690.358 58.0952 689.399 59.054 688.717 60.2898C688.05 61.5256 687.716 62.9744 687.716 64.6364H682.688C682.688 62.0795 683.277 59.8352 684.456 57.9034C685.635 55.9716 687.24 54.4659 689.271 53.3864C691.317 52.3068 693.611 51.767 696.153 51.767C698.71 51.767 700.976 52.3068 702.95 53.3864C704.925 54.4659 706.473 55.9219 707.595 57.7543C708.717 59.5866 709.278 61.625 709.278 63.8693C709.278 65.4744 708.987 67.044 708.405 68.5781C707.837 70.098 706.842 71.7955 705.422 73.6705C704.016 75.5312 702.062 77.804 699.562 80.4886L689.761 90.9716V91.3125H710.045V96H682.517ZM719.612 96V52.3636H745.777V57.0511H724.896V71.7955H743.817V76.483H724.896V96H719.612Z" fill="black"/>
<path d="M297.605 254L291.639 232.182H294.324L298.884 249.952H299.097L303.741 232.182H306.724L311.369 249.952H311.582L316.142 232.182H318.827L312.861 254H310.134L305.318 236.614H305.148L300.332 254H297.605ZM338.65 239H336.008C335.852 238.24 335.578 237.572 335.188 236.997C334.804 236.422 334.335 235.939 333.781 235.548C333.235 235.151 332.627 234.852 331.96 234.653C331.292 234.455 330.596 234.355 329.872 234.355C328.551 234.355 327.354 234.689 326.281 235.357C325.216 236.024 324.367 237.008 323.735 238.308C323.11 239.607 322.798 241.202 322.798 243.091C322.798 244.98 323.11 246.575 323.735 247.874C324.367 249.174 325.216 250.158 326.281 250.825C327.354 251.493 328.551 251.827 329.872 251.827C330.596 251.827 331.292 251.727 331.96 251.528C332.627 251.33 333.235 251.035 333.781 250.644C334.335 250.246 334.804 249.76 335.188 249.185C335.578 248.602 335.852 247.935 336.008 247.182H338.65C338.451 248.297 338.089 249.295 337.563 250.175C337.038 251.056 336.384 251.805 335.603 252.423C334.822 253.034 333.945 253.499 332.972 253.819C332.006 254.138 330.972 254.298 329.872 254.298C328.011 254.298 326.356 253.844 324.907 252.935C323.458 252.026 322.318 250.733 321.487 249.057C320.656 247.381 320.241 245.392 320.241 243.091C320.241 240.79 320.656 238.801 321.487 237.125C322.318 235.449 323.458 234.156 324.907 233.247C326.356 232.338 328.011 231.884 329.872 231.884C330.972 231.884 332.006 232.043 332.972 232.363C333.945 232.683 334.822 233.151 335.603 233.769C336.384 234.38 337.038 235.126 337.563 236.006C338.089 236.88 338.451 237.878 338.65 239Z" fill="black"/>
<path d="M163.403 253L159.426 238.455H161.216L164.256 250.301H164.398L167.494 238.455H169.483L172.58 250.301H172.722L175.761 238.455H177.551L173.574 253H171.756L168.545 241.409H168.432L165.222 253H163.403ZM190.767 243H189.005C188.901 242.493 188.719 242.048 188.458 241.665C188.203 241.281 187.89 240.959 187.521 240.699C187.156 240.434 186.752 240.235 186.306 240.102C185.861 239.97 185.397 239.903 184.914 239.903C184.034 239.903 183.236 240.126 182.521 240.571C181.811 241.016 181.245 241.672 180.824 242.538C180.407 243.405 180.199 244.468 180.199 245.727C180.199 246.987 180.407 248.05 180.824 248.916C181.245 249.783 181.811 250.438 182.521 250.884C183.236 251.329 184.034 251.551 184.914 251.551C185.397 251.551 185.861 251.485 186.306 251.352C186.752 251.22 187.156 251.023 187.521 250.763C187.89 250.498 188.203 250.173 188.458 249.79C188.719 249.402 188.901 248.956 189.005 248.455H190.767C190.634 249.198 190.393 249.863 190.042 250.45C189.692 251.037 189.256 251.537 188.735 251.949C188.215 252.356 187.63 252.666 186.981 252.879C186.337 253.092 185.648 253.199 184.914 253.199C183.674 253.199 182.571 252.896 181.605 252.29C180.639 251.684 179.879 250.822 179.325 249.705C178.771 248.587 178.494 247.261 178.494 245.727C178.494 244.193 178.771 242.867 179.325 241.75C179.879 240.633 180.639 239.771 181.605 239.165C182.571 238.559 183.674 238.256 184.914 238.256C185.648 238.256 186.337 238.362 186.981 238.575C187.63 238.788 188.215 239.101 188.735 239.513C189.256 239.92 189.692 240.417 190.042 241.004C190.393 241.587 190.634 242.252 190.767 243Z" fill="black"/>
<path d="M285.239 156.909V186H281.716V160.602H281.545L274.443 165.318V161.739L281.716 156.909H285.239ZM303.832 156.909V186H300.31V160.602H300.139L293.037 165.318V161.739L300.31 156.909H303.832ZM321.688 186.398C319.547 186.398 317.724 185.815 316.219 184.651C314.713 183.476 313.563 181.777 312.767 179.551C311.972 177.316 311.574 174.617 311.574 171.455C311.574 168.311 311.972 165.626 312.767 163.401C313.572 161.166 314.727 159.461 316.233 158.287C317.748 157.103 319.566 156.511 321.688 156.511C323.809 156.511 325.622 157.103 327.128 158.287C328.643 159.461 329.798 161.166 330.594 163.401C331.399 165.626 331.801 168.311 331.801 171.455C331.801 174.617 331.403 177.316 330.608 179.551C329.812 181.777 328.662 183.476 327.156 184.651C325.651 185.815 323.828 186.398 321.688 186.398ZM321.688 183.273C323.809 183.273 325.456 182.25 326.631 180.205C327.805 178.159 328.392 175.242 328.392 171.455C328.392 168.936 328.122 166.791 327.582 165.02C327.052 163.249 326.285 161.9 325.281 160.972C324.287 160.044 323.089 159.58 321.688 159.58C319.585 159.58 317.942 160.616 316.759 162.69C315.575 164.755 314.983 167.676 314.983 171.455C314.983 173.973 315.248 176.114 315.778 177.875C316.309 179.636 317.071 180.976 318.065 181.895C319.069 182.813 320.277 183.273 321.688 183.273ZM346.29 186.398C344.623 186.398 343.122 186.066 341.787 185.403C340.452 184.741 339.382 183.831 338.577 182.676C337.772 181.521 337.331 180.205 337.256 178.727H340.665C340.797 180.044 341.394 181.133 342.455 181.994C343.525 182.847 344.803 183.273 346.29 183.273C347.483 183.273 348.544 182.993 349.472 182.435C350.409 181.876 351.143 181.109 351.673 180.134C352.213 179.149 352.483 178.036 352.483 176.795C352.483 175.527 352.204 174.395 351.645 173.401C351.096 172.397 350.338 171.606 349.372 171.028C348.406 170.451 347.303 170.157 346.062 170.148C345.172 170.138 344.259 170.276 343.321 170.56C342.384 170.834 341.612 171.189 341.006 171.625L337.71 171.227L339.472 156.909H354.585V160.034H342.426L341.403 168.614H341.574C342.17 168.14 342.919 167.747 343.818 167.435C344.718 167.122 345.655 166.966 346.631 166.966C348.411 166.966 349.997 167.392 351.389 168.244C352.791 169.087 353.889 170.242 354.685 171.71C355.49 173.178 355.892 174.854 355.892 176.739C355.892 178.595 355.475 180.252 354.642 181.71C353.818 183.159 352.682 184.305 351.233 185.148C349.784 185.981 348.136 186.398 346.29 186.398Z" fill="black"/>
<path d="M123.239 580.909V610H119.716V584.602H119.545L112.443 589.318V585.739L119.716 580.909H123.239ZM141.832 580.909V610H138.31V584.602H138.139L131.037 589.318V585.739L138.31 580.909H141.832ZM159.688 610.398C157.547 610.398 155.724 609.815 154.219 608.651C152.713 607.476 151.563 605.777 150.767 603.551C149.972 601.316 149.574 598.617 149.574 595.455C149.574 592.311 149.972 589.626 150.767 587.401C151.572 585.166 152.727 583.461 154.233 582.287C155.748 581.103 157.566 580.511 159.688 580.511C161.809 580.511 163.622 581.103 165.128 582.287C166.643 583.461 167.798 585.166 168.594 587.401C169.399 589.626 169.801 592.311 169.801 595.455C169.801 598.617 169.403 601.316 168.608 603.551C167.812 605.777 166.662 607.476 165.156 608.651C163.651 609.815 161.828 610.398 159.688 610.398ZM159.688 607.273C161.809 607.273 163.456 606.25 164.631 604.205C165.805 602.159 166.392 599.242 166.392 595.455C166.392 592.936 166.122 590.791 165.582 589.02C165.052 587.249 164.285 585.9 163.281 584.972C162.287 584.044 161.089 583.58 159.688 583.58C157.585 583.58 155.942 584.616 154.759 586.69C153.575 588.755 152.983 591.676 152.983 595.455C152.983 597.973 153.248 600.114 153.778 601.875C154.309 603.636 155.071 604.976 156.065 605.895C157.069 606.813 158.277 607.273 159.688 607.273ZM185.426 580.909V610H181.903V584.602H181.733L174.631 589.318V585.739L181.903 580.909H185.426Z" fill="black"/>
<path d="M308.239 580.909V610H304.716V584.602H304.545L297.443 589.318V585.739L304.716 580.909H308.239ZM326.832 580.909V610H323.31V584.602H323.139L316.037 589.318V585.739L323.31 580.909H326.832ZM344.688 610.398C342.547 610.398 340.724 609.815 339.219 608.651C337.713 607.476 336.563 605.777 335.767 603.551C334.972 601.316 334.574 598.617 334.574 595.455C334.574 592.311 334.972 589.626 335.767 587.401C336.572 585.166 337.727 583.461 339.233 582.287C340.748 581.103 342.566 580.511 344.688 580.511C346.809 580.511 348.622 581.103 350.128 582.287C351.643 583.461 352.798 585.166 353.594 587.401C354.399 589.626 354.801 592.311 354.801 595.455C354.801 598.617 354.403 601.316 353.608 603.551C352.812 605.777 351.662 607.476 350.156 608.651C348.651 609.815 346.828 610.398 344.688 610.398ZM344.688 607.273C346.809 607.273 348.456 606.25 349.631 604.205C350.805 602.159 351.392 599.242 351.392 595.455C351.392 592.936 351.122 590.791 350.582 589.02C350.052 587.249 349.285 585.9 348.281 584.972C347.287 584.044 346.089 583.58 344.688 583.58C342.585 583.58 340.942 584.616 339.759 586.69C338.575 588.755 337.983 591.676 337.983 595.455C337.983 597.973 338.248 600.114 338.778 601.875C339.309 603.636 340.071 604.976 341.065 605.895C342.069 606.813 343.277 607.273 344.688 607.273ZM360.199 610V607.443L369.801 596.932C370.928 595.701 371.856 594.631 372.585 593.722C373.314 592.803 373.854 591.941 374.205 591.136C374.564 590.322 374.744 589.47 374.744 588.58C374.744 587.557 374.498 586.671 374.006 585.923C373.523 585.175 372.86 584.598 372.017 584.19C371.174 583.783 370.227 583.58 369.176 583.58C368.059 583.58 367.083 583.812 366.25 584.276C365.426 584.73 364.787 585.369 364.332 586.193C363.887 587.017 363.665 587.983 363.665 589.091H360.312C360.312 587.386 360.705 585.89 361.491 584.602C362.277 583.314 363.348 582.311 364.702 581.591C366.065 580.871 367.595 580.511 369.29 580.511C370.994 580.511 372.505 580.871 373.821 581.591C375.137 582.311 376.17 583.281 376.918 584.503C377.666 585.724 378.04 587.083 378.04 588.58C378.04 589.65 377.846 590.696 377.457 591.719C377.079 592.732 376.416 593.864 375.469 595.114C374.531 596.354 373.229 597.869 371.562 599.659L365.028 606.648V606.875H378.551V610H360.199Z" fill="black"/>
<path d="M694.239 580.909V610H690.716V584.602H690.545L683.443 589.318V585.739L690.716 580.909H694.239ZM712.832 580.909V610H709.31V584.602H709.139L702.037 589.318V585.739L709.31 580.909H712.832ZM730.688 610.398C728.547 610.398 726.724 609.815 725.219 608.651C723.713 607.476 722.563 605.777 721.767 603.551C720.972 601.316 720.574 598.617 720.574 595.455C720.574 592.311 720.972 589.626 721.767 587.401C722.572 585.166 723.727 583.461 725.233 582.287C726.748 581.103 728.566 580.511 730.688 580.511C732.809 580.511 734.622 581.103 736.128 582.287C737.643 583.461 738.798 585.166 739.594 587.401C740.399 589.626 740.801 592.311 740.801 595.455C740.801 598.617 740.403 601.316 739.608 603.551C738.812 605.777 737.662 607.476 736.156 608.651C734.651 609.815 732.828 610.398 730.688 610.398ZM730.688 607.273C732.809 607.273 734.456 606.25 735.631 604.205C736.805 602.159 737.392 599.242 737.392 595.455C737.392 592.936 737.122 590.791 736.582 589.02C736.052 587.249 735.285 585.9 734.281 584.972C733.287 584.044 732.089 583.58 730.688 583.58C728.585 583.58 726.942 584.616 725.759 586.69C724.575 588.755 723.983 591.676 723.983 595.455C723.983 597.973 724.248 600.114 724.778 601.875C725.309 603.636 726.071 604.976 727.065 605.895C728.069 606.813 729.277 607.273 730.688 607.273ZM755.858 610.398C754.665 610.379 753.472 610.152 752.278 609.716C751.085 609.28 749.996 608.546 749.011 607.514C748.027 606.473 747.236 605.066 746.639 603.295C746.043 601.515 745.744 599.28 745.744 596.591C745.744 594.015 745.986 591.733 746.469 589.744C746.952 587.746 747.652 586.065 748.571 584.702C749.49 583.329 750.598 582.287 751.895 581.577C753.202 580.866 754.674 580.511 756.312 580.511C757.941 580.511 759.39 580.838 760.659 581.491C761.938 582.135 762.979 583.035 763.784 584.19C764.589 585.346 765.11 586.676 765.347 588.182H761.881C761.559 586.875 760.934 585.791 760.006 584.929C759.078 584.067 757.847 583.636 756.312 583.636C754.059 583.636 752.283 584.616 750.986 586.577C749.698 588.537 749.049 591.288 749.04 594.83H749.267C749.797 594.025 750.427 593.338 751.156 592.77C751.895 592.192 752.709 591.747 753.599 591.435C754.49 591.122 755.432 590.966 756.426 590.966C758.093 590.966 759.617 591.383 761 592.216C762.383 593.04 763.491 594.181 764.324 595.639C765.157 597.088 765.574 598.75 765.574 600.625C765.574 602.424 765.171 604.072 764.366 605.568C763.562 607.055 762.43 608.239 760.972 609.119C759.523 609.991 757.818 610.417 755.858 610.398ZM755.858 607.273C757.051 607.273 758.121 606.974 759.068 606.378C760.025 605.781 760.777 604.981 761.327 603.977C761.885 602.973 762.165 601.856 762.165 600.625C762.165 599.422 761.895 598.329 761.355 597.344C760.825 596.349 760.091 595.559 759.153 594.972C758.225 594.384 757.165 594.091 755.972 594.091C755.072 594.091 754.234 594.271 753.457 594.631C752.681 594.981 751.999 595.464 751.412 596.08C750.834 596.695 750.38 597.401 750.048 598.196C749.717 598.982 749.551 599.811 749.551 600.682C749.551 601.837 749.821 602.917 750.361 603.92C750.91 604.924 751.658 605.734 752.605 606.349C753.562 606.965 754.646 607.273 755.858 607.273Z" fill="black"/>
<path d="M685.239 159.909V189H681.716V163.602H681.545L674.443 168.318V164.739L681.716 159.909H685.239ZM703.832 159.909V189H700.31V163.602H700.139L693.037 168.318V164.739L700.31 159.909H703.832ZM721.688 189.398C719.547 189.398 717.724 188.815 716.219 187.651C714.713 186.476 713.563 184.777 712.767 182.551C711.972 180.316 711.574 177.617 711.574 174.455C711.574 171.311 711.972 168.626 712.767 166.401C713.572 164.166 714.727 162.461 716.233 161.287C717.748 160.103 719.566 159.511 721.688 159.511C723.809 159.511 725.622 160.103 727.128 161.287C728.643 162.461 729.798 164.166 730.594 166.401C731.399 168.626 731.801 171.311 731.801 174.455C731.801 177.617 731.403 180.316 730.608 182.551C729.812 184.777 728.662 186.476 727.156 187.651C725.651 188.815 723.828 189.398 721.688 189.398ZM721.688 186.273C723.809 186.273 725.456 185.25 726.631 183.205C727.805 181.159 728.392 178.242 728.392 174.455C728.392 171.936 728.122 169.791 727.582 168.02C727.052 166.249 726.285 164.9 725.281 163.972C724.287 163.044 723.089 162.58 721.688 162.58C719.585 162.58 717.942 163.616 716.759 165.69C715.575 167.755 714.983 170.676 714.983 174.455C714.983 176.973 715.248 179.114 715.778 180.875C716.309 182.636 717.071 183.976 718.065 184.895C719.069 185.813 720.277 186.273 721.688 186.273ZM746.517 189.398C744.566 189.398 742.843 189.052 741.347 188.361C739.86 187.66 738.7 186.699 737.866 185.477C737.033 184.246 736.621 182.845 736.631 181.273C736.621 180.042 736.863 178.905 737.355 177.864C737.848 176.812 738.52 175.937 739.372 175.236C740.234 174.526 741.195 174.076 742.256 173.886V173.716C740.864 173.356 739.756 172.575 738.932 171.372C738.108 170.16 737.701 168.782 737.71 167.239C737.701 165.761 738.075 164.44 738.832 163.276C739.59 162.111 740.632 161.192 741.957 160.52C743.293 159.848 744.813 159.511 746.517 159.511C748.203 159.511 749.708 159.848 751.034 160.52C752.36 161.192 753.402 162.111 754.159 163.276C754.926 164.44 755.314 165.761 755.324 167.239C755.314 168.782 754.893 170.16 754.06 171.372C753.236 172.575 752.142 173.356 750.778 173.716V173.886C751.83 174.076 752.777 174.526 753.619 175.236C754.462 175.937 755.134 176.812 755.636 177.864C756.138 178.905 756.394 180.042 756.403 181.273C756.394 182.845 755.968 184.246 755.125 185.477C754.292 186.699 753.132 187.66 751.645 188.361C750.168 189.052 748.458 189.398 746.517 189.398ZM746.517 186.273C747.833 186.273 748.97 186.06 749.926 185.634C750.883 185.207 751.621 184.606 752.142 183.83C752.663 183.053 752.928 182.144 752.938 181.102C752.928 180.004 752.644 179.033 752.085 178.19C751.527 177.348 750.764 176.685 749.798 176.202C748.842 175.719 747.748 175.477 746.517 175.477C745.277 175.477 744.169 175.719 743.193 176.202C742.227 176.685 741.465 177.348 740.906 178.19C740.357 179.033 740.087 180.004 740.097 181.102C740.087 182.144 740.338 183.053 740.849 183.83C741.37 184.606 742.114 185.207 743.08 185.634C744.045 186.06 745.191 186.273 746.517 186.273ZM746.517 172.466C747.559 172.466 748.482 172.258 749.287 171.841C750.101 171.424 750.741 170.842 751.205 170.094C751.669 169.346 751.905 168.47 751.915 167.466C751.905 166.481 751.673 165.624 751.219 164.895C750.764 164.156 750.134 163.588 749.33 163.19C748.525 162.783 747.587 162.58 746.517 162.58C745.428 162.58 744.476 162.783 743.662 163.19C742.848 163.588 742.218 164.156 741.773 164.895C741.328 165.624 741.11 166.481 741.119 167.466C741.11 168.47 741.332 169.346 741.787 170.094C742.251 170.842 742.89 171.424 743.705 171.841C744.519 172.258 745.456 172.466 746.517 172.466Z" fill="black"/>
<path d="M541.239 150.909V180H537.716V154.602H537.545L530.443 159.318V155.739L537.716 150.909H541.239ZM559.832 150.909V180H556.31V154.602H556.139L549.037 159.318V155.739L556.31 150.909H559.832ZM577.688 180.398C575.547 180.398 573.724 179.815 572.219 178.651C570.713 177.476 569.563 175.777 568.767 173.551C567.972 171.316 567.574 168.617 567.574 165.455C567.574 162.311 567.972 159.626 568.767 157.401C569.572 155.166 570.727 153.461 572.233 152.287C573.748 151.103 575.566 150.511 577.688 150.511C579.809 150.511 581.622 151.103 583.128 152.287C584.643 153.461 585.798 155.166 586.594 157.401C587.399 159.626 587.801 162.311 587.801 165.455C587.801 168.617 587.403 171.316 586.608 173.551C585.812 175.777 584.662 177.476 583.156 178.651C581.651 179.815 579.828 180.398 577.688 180.398ZM577.688 177.273C579.809 177.273 581.456 176.25 582.631 174.205C583.805 172.159 584.392 169.242 584.392 165.455C584.392 162.936 584.122 160.791 583.582 159.02C583.052 157.249 582.285 155.9 581.281 154.972C580.287 154.044 579.089 153.58 577.688 153.58C575.585 153.58 573.942 154.616 572.759 156.69C571.575 158.755 570.983 161.676 570.983 165.455C570.983 167.973 571.248 170.114 571.778 171.875C572.309 173.636 573.071 174.976 574.065 175.895C575.069 176.813 576.277 177.273 577.688 177.273ZM593.327 180L606.338 154.261V154.034H591.338V150.909H609.974V154.205L597.02 180H593.327Z" fill="black"/>
<path d="M825.239 150.909V180H821.716V154.602H821.545L814.443 159.318V155.739L821.716 150.909H825.239ZM843.832 150.909V180H840.31V154.602H840.139L833.037 159.318V155.739L840.31 150.909H843.832ZM861.688 180.398C859.547 180.398 857.724 179.815 856.219 178.651C854.713 177.476 853.563 175.777 852.767 173.551C851.972 171.316 851.574 168.617 851.574 165.455C851.574 162.311 851.972 159.626 852.767 157.401C853.572 155.166 854.727 153.461 856.233 152.287C857.748 151.103 859.566 150.511 861.688 150.511C863.809 150.511 865.622 151.103 867.128 152.287C868.643 153.461 869.798 155.166 870.594 157.401C871.399 159.626 871.801 162.311 871.801 165.455C871.801 168.617 871.403 171.316 870.608 173.551C869.812 175.777 868.662 177.476 867.156 178.651C865.651 179.815 863.828 180.398 861.688 180.398ZM861.688 177.273C863.809 177.273 865.456 176.25 866.631 174.205C867.805 172.159 868.392 169.242 868.392 165.455C868.392 162.936 868.122 160.791 867.582 159.02C867.052 157.249 866.285 155.9 865.281 154.972C864.287 154.044 863.089 153.58 861.688 153.58C859.585 153.58 857.942 154.616 856.759 156.69C855.575 158.755 854.983 161.676 854.983 165.455C854.983 167.973 855.248 170.114 855.778 171.875C856.309 173.636 857.071 174.976 858.065 175.895C859.069 176.813 860.277 177.273 861.688 177.273ZM886.46 150.511C887.653 150.521 888.847 150.748 890.04 151.193C891.233 151.638 892.322 152.377 893.307 153.409C894.292 154.432 895.082 155.829 895.679 157.599C896.276 159.37 896.574 161.591 896.574 164.261C896.574 166.847 896.328 169.143 895.835 171.151C895.352 173.149 894.652 174.834 893.733 176.207C892.824 177.58 891.716 178.622 890.409 179.332C889.112 180.043 887.644 180.398 886.006 180.398C884.377 180.398 882.923 180.076 881.645 179.432C880.376 178.778 879.334 177.874 878.52 176.719C877.715 175.554 877.199 174.205 876.972 172.67H880.438C880.75 174.006 881.37 175.109 882.298 175.98C883.236 176.842 884.472 177.273 886.006 177.273C888.25 177.273 890.021 176.293 891.318 174.332C892.625 172.372 893.278 169.602 893.278 166.023H893.051C892.521 166.818 891.891 167.505 891.162 168.082C890.433 168.66 889.623 169.105 888.733 169.418C887.843 169.73 886.896 169.886 885.892 169.886C884.225 169.886 882.696 169.474 881.304 168.651C879.921 167.817 878.813 166.676 877.98 165.227C877.156 163.769 876.744 162.102 876.744 160.227C876.744 158.447 877.142 156.818 877.938 155.341C878.742 153.854 879.869 152.67 881.318 151.79C882.777 150.909 884.491 150.483 886.46 150.511ZM886.46 153.636C885.267 153.636 884.192 153.935 883.236 154.531C882.289 155.118 881.536 155.914 880.977 156.918C880.428 157.912 880.153 159.015 880.153 160.227C880.153 161.439 880.419 162.543 880.949 163.537C881.489 164.522 882.223 165.308 883.151 165.895C884.088 166.473 885.153 166.761 886.347 166.761C887.246 166.761 888.084 166.586 888.861 166.236C889.637 165.876 890.314 165.388 890.892 164.773C891.479 164.148 891.938 163.442 892.27 162.656C892.601 161.861 892.767 161.032 892.767 160.17C892.767 159.034 892.492 157.969 891.943 156.974C891.403 155.98 890.655 155.175 889.699 154.56C888.752 153.944 887.672 153.636 886.46 153.636Z" fill="black"/>
<line x1="904" y1="703" x2="904" y2="467" stroke="black" stroke-width="2"/>
<line x1="527" y1="703" x2="527" y2="467" stroke="black" stroke-width="2"/>
<line x1="562" y1="703" x2="562" y2="662" stroke="black" stroke-width="2"/>
<line x1="539" y1="656" x2="539" y2="515" stroke="black" stroke-width="2"/>
<line x1="540" y1="657" x2="528" y2="657" stroke="black" stroke-width="2"/>
<line x1="540" y1="516" x2="528" y2="516" stroke="black" stroke-width="2"/>
<line x1="562" y1="509" x2="562" y2="435" stroke="black" stroke-width="2"/>
<line x1="558" y1="467" x2="558" y2="354" stroke="black" stroke-width="2"/>
<line x1="525" y1="355" x2="525" y2="121" stroke="black" stroke-width="2"/>
<line x1="620" y1="266" x2="620" y2="122" stroke="black" stroke-width="2"/>
<line x1="809" y1="265" x2="809" y2="121" stroke="black" stroke-width="2"/>
<line x1="794.006" y1="354" x2="794.006" y2="266" stroke="black" stroke-width="2"/>
<line x1="637" y1="354" x2="637" y2="266" stroke="black" stroke-width="2"/>
<line x1="621" y1="265" x2="638" y2="265" stroke="black" stroke-width="2"/>
<line x1="526" y1="210" x2="621" y2="210" stroke="black" stroke-width="2"/>
<line x1="524" y1="265" x2="590" y2="265" stroke="black" stroke-width="2"/>
<line x1="842" y1="265" x2="904" y2="265" stroke="black" stroke-width="2"/>
<line x1="524" y1="249" x2="590" y2="249" stroke="black" stroke-width="2"/>
<line x1="539" y1="289" x2="590.01" y2="289" stroke="black" stroke-width="2"/>
<line x1="537" y1="330" x2="562" y2="330" stroke="black" stroke-width="2"/>
<line x1="562.49" y1="322.14" x2="589.49" y2="306.14" stroke="black" stroke-width="2"/>
<line x1="538" y1="312" x2="563" y2="312" stroke="black" stroke-width="2"/>
<line x1="537" y1="318" x2="562" y2="318" stroke="black" stroke-width="2"/>
<line x1="537" y1="324" x2="562" y2="324" stroke="black" stroke-width="2"/>
<line x1="562" y1="339" x2="562" y2="288" stroke="black" stroke-width="2"/>
<line x1="537" y1="338" x2="588.01" y2="338" stroke="black" stroke-width="2"/>
<line x1="539" y1="306" x2="590.01" y2="306" stroke="black" stroke-width="2"/>
<line x1="539" y1="301" x2="590.01" y2="301" stroke="black" stroke-width="2"/>
<line x1="537" y1="295" x2="588.01" y2="295" stroke="black" stroke-width="2"/>
<line x1="539" y1="289" x2="590.01" y2="289" stroke="black" stroke-width="2"/>
<line x1="810" y1="247" x2="905" y2="247" stroke="black" stroke-width="2"/>
<line x1="793" y1="265" x2="810" y2="265" stroke="black" stroke-width="2"/>
<line x1="589" y1="339" x2="589" y2="245" stroke="black" stroke-width="2"/>
<line x1="538" y1="355" x2="538" y2="266" stroke="black" stroke-width="2"/>
<line y1="-1" x2="51.0098" y2="-1" transform="matrix(-1 0 0 1 893.01 290)" stroke="black" stroke-width="2"/>
<line y1="-1" x2="25" y2="-1" transform="matrix(-1 8.96805e-09 8.96805e-09 1 895.01 331)" stroke="black" stroke-width="2"/>
<line y1="-1" x2="31.3847" y2="-1" transform="matrix(-0.860292 -0.509802 -0.509802 0.860292 869.01 323)" stroke="black" stroke-width="2"/>
<line y1="-1" x2="25" y2="-1" transform="matrix(-1 8.96805e-09 8.96805e-09 1 894.01 313)" stroke="black" stroke-width="2"/>
<line y1="-1" x2="25" y2="-1" transform="matrix(-1 8.96805e-09 8.96805e-09 1 895.01 319)" stroke="black" stroke-width="2"/>
<line y1="-1" x2="25" y2="-1" transform="matrix(-1 8.96805e-09 8.96805e-09 1 895.01 325)" stroke="black" stroke-width="2"/>
<line y1="-1" x2="51" y2="-1" transform="matrix(-1.95163e-09 -1 -1 1.95163e-09 869.01 339)" stroke="black" stroke-width="2"/>
<line y1="-1" x2="51.0098" y2="-1" transform="matrix(-1 0 0 1 895.01 339)" stroke="black" stroke-width="2"/>
<line y1="-1" x2="51.0098" y2="-1" transform="matrix(-1 0 0 1 893.01 307)" stroke="black" stroke-width="2"/>
<line y1="-1" x2="51.0098" y2="-1" transform="matrix(-1 0 0 1 893.01 302)" stroke="black" stroke-width="2"/>
<line y1="-1" x2="51.0098" y2="-1" transform="matrix(-1 0 0 1 895.01 296)" stroke="black" stroke-width="2"/>
<line y1="-1" x2="51.0098" y2="-1" transform="matrix(-1 0 0 1 893.01 290)" stroke="black" stroke-width="2"/>
<line y1="-1" x2="94" y2="-1" transform="matrix(0 -1 -1 0 842.01 339)" stroke="black" stroke-width="2"/>
<line y1="-1" x2="89" y2="-1" transform="matrix(0 -1 -1 0 893.01 355)" stroke="black" stroke-width="2"/>
<line x1="904" y1="355" x2="904" y2="122" stroke="black" stroke-width="2"/>
<line x1="563" y1="436" x2="665" y2="436" stroke="black" stroke-width="2"/>
<line x1="666" y1="405" x2="666" y2="437" stroke="black" stroke-width="2"/>
<line x1="664" y1="383" x2="664" y2="392" stroke="black" stroke-width="2"/>
<line x1="766" y1="383" x2="766" y2="392" stroke="black" stroke-width="2"/>
<line x1="659" y1="405" x2="659" y2="437" stroke="black" stroke-width="2"/>
<line x1="652" y1="405" x2="652" y2="437" stroke="black" stroke-width="2"/>
<line x1="645" y1="405" x2="645" y2="437" stroke="black" stroke-width="2"/>
<line x1="638" y1="405" x2="638" y2="437" stroke="black" stroke-width="2"/>
<line x1="665" y1="406" x2="636" y2="406" stroke="black" stroke-width="2"/>
<line x1="626.058" y1="436.666" x2="637.058" y2="405.666" stroke="black" stroke-width="2"/>
<line y1="-1" x2="32" y2="-1" transform="matrix(0 1 1 0 767 405)" stroke="black" stroke-width="2"/>
<line y1="-1" x2="32" y2="-1" transform="matrix(0 1 1 0 774 405)" stroke="black" stroke-width="2"/>
<line y1="-1" x2="32" y2="-1" transform="matrix(0 1 1 0 781 405)" stroke="black" stroke-width="2"/>
<line y1="-1" x2="32" y2="-1" transform="matrix(0 1 1 0 788 405)" stroke="black" stroke-width="2"/>
<line y1="-1" x2="32" y2="-1" transform="matrix(0 1 1 0 795 405)" stroke="black" stroke-width="2"/>
<line y1="-1" x2="29" y2="-1" transform="matrix(1 0 0 -1 767 405)" stroke="black" stroke-width="2"/>
<line y1="-1" x2="32.8938" y2="-1" transform="matrix(-0.33441 -0.942428 -0.942428 0.33441 805 437)" stroke="black" stroke-width="2"/>
<line x1="765" y1="436" x2="869" y2="436" stroke="black" stroke-width="2"/>
<line x1="562" y1="369" x2="562" y2="421" stroke="black" stroke-width="2"/>
<line x1="618.611" y1="467.791" x2="596.611" y2="484.791" stroke="black" stroke-width="2"/>
<line y1="-1" x2="27.8029" y2="-1" transform="matrix(0.791285 0.611448 0.611448 -0.791285 814 467)" stroke="black" stroke-width="2"/>
<line x1="562" y1="370" x2="869" y2="370" stroke="black" stroke-width="2"/>
<line x1="665" y1="384" x2="765" y2="384" stroke="black" stroke-width="2"/>
<line x1="526" y1="354" x2="904" y2="354" stroke="black" stroke-width="2"/>
<line x1="524" y1="121" x2="905" y2="121" stroke="black" stroke-width="2"/>
<line x1="618" y1="468" x2="814" y2="468" stroke="black" stroke-width="2"/>
<line x1="873" y1="355" x2="873" y2="468" stroke="black" stroke-width="2"/>
<line x1="870" y1="369" x2="870" y2="424" stroke="black" stroke-width="2"/>
<line x1="869" y1="468" x2="905" y2="468" stroke="black" stroke-width="2"/>
<line x1="868" y1="486" x2="868" y2="437" stroke="black" stroke-width="2"/>
<line x1="583" y1="656" x2="583" y2="515" stroke="black" stroke-width="2"/>
<line x1="583.356" y1="654.934" x2="562.356" y2="662.935" stroke="black" stroke-width="2"/>
<line x1="553.351" y1="660.064" x2="561.351" y2="663.064" stroke="black" stroke-width="2"/>
<line y1="-1" x2="22.4722" y2="-1" transform="matrix(-0.934488 -0.355995 -0.355995 0.934488 583 517)" stroke="black" stroke-width="2"/>
<line y1="-1" x2="8.544" y2="-1" transform="matrix(0.936329 -0.351123 -0.351123 -0.936329 553 510)" stroke="black" stroke-width="2"/>
<line x1="528" y1="702" x2="905" y2="702" stroke="black" stroke-width="2"/>
<line x1="563" y1="485" x2="905" y2="485" stroke="black" stroke-width="2"/>
<line x1="527" y1="468" x2="562" y2="468" stroke="black" stroke-width="2"/>
</svg>
